<svg width="550" height="200" viewBox="0 0 550 200" fill="none" xmlns="http://www.w3.org/2000/svg">
<rect width="550" height="200" rx="26" fill="#007AFF" fill-opacity="0.2"/>
<path d="M99.8185 74.2814C99.8185 64.3402 107.877 56.2814 117.818 56.2814H433.18C443.121 56.2814 451.18 64.3402 451.18 74.2814V200H99.8185V74.2814Z" fill="url(#paint0_linear_2_215)"/>
<rect x="421" y="65.3267" width="24" height="24" rx="6" fill="#FAFAFA" fill-opacity="0.08"/>
<path d="M429.571 73.3267C429.42 73.3267 429.274 73.3869 429.167 73.4941C429.06 73.6012 429 73.7466 429 73.8981C429 74.0496 429.06 74.195 429.167 74.3021L432.192 77.3267L429.167 80.3513C429.06 80.4584 429 80.6038 429 80.7553C429 80.9068 429.06 81.0522 429.167 81.1593C429.274 81.2665 429.42 81.3267 429.571 81.3267C429.723 81.3267 429.868 81.2665 429.975 81.1593L433 78.1347L436.025 81.1593C436.132 81.2665 436.277 81.3267 436.429 81.3267C436.58 81.3267 436.726 81.2665 436.833 81.1593C436.94 81.0522 437 80.9068 437 80.7553C437 80.6038 436.94 80.4584 436.833 80.3513L433.808 77.3267L436.833 74.3021C436.94 74.195 437 74.0496 437 73.8981C437 73.7466 436.94 73.6012 436.833 73.4941C436.726 73.3869 436.58 73.3267 436.429 73.3267C436.277 73.3267 436.132 73.3869 436.025 73.4941L433 76.5187L429.975 73.4941C429.868 73.3869 429.723 73.3267 429.571 73.3267Z" fill="#FAFAFA"/>
<defs>
<linearGradient id="paint0_linear_2_215" x1="275.499" y1="56.2814" x2="275.499" y2="200" gradientUnits="userSpaceOnUse">
<stop stop-color="#2D2D2D"/>
<stop offset="0.348958" stop-color="#2D2D2D"/>
<stop offset="1" stop-color="#2D2D2D" stop-opacity="0"/>
</linearGradient>
</defs>
</svg>
