<svg width="550" height="200" viewBox="0 0 550 200" fill="none" xmlns="http://www.w3.org/2000/svg">
<rect width="550" height="200" rx="26" fill="#007AFF" fill-opacity="0.2"/>
<path d="M99.8185 74.2814C99.8185 64.3402 107.877 56.2814 117.819 56.2814H433.18C443.121 56.2814 451.18 64.3402 451.18 74.2814V200H99.8185V74.2814Z" fill="url(#paint0_linear_2_202)"/>
<rect x="419" y="65" width="24" height="24" rx="6" fill="#2D2D2D" fill-opacity="0.08"/>
<path d="M427.571 73C427.42 73 427.274 73.0602 427.167 73.1674C427.06 73.2746 427 73.4199 427 73.5714C427 73.723 427.06 73.8683 427.167 73.9755L430.192 77L427.167 80.0246C427.06 80.1318 427 80.2771 427 80.4287C427 80.5802 427.06 80.7255 427.167 80.8327C427.274 80.9398 427.42 81 427.571 81C427.723 81 427.868 80.9398 427.975 80.8327L431 77.8081L434.025 80.8327C434.132 80.9398 434.277 81 434.429 81C434.58 81 434.726 80.9398 434.833 80.8327C434.94 80.7255 435 80.5802 435 80.4287C435 80.2771 434.94 80.1318 434.833 80.0246L431.808 77L434.833 73.9755C434.94 73.8683 435 73.723 435 73.5714C435 73.4199 434.94 73.2746 434.833 73.1674C434.726 73.0603 434.58 73.0001 434.429 73.0001C434.277 73.0001 434.132 73.0603 434.025 73.1674L431 76.192L427.975 73.1674C427.868 73.0602 427.723 73 427.571 73Z" fill="#2D2D2D"/>
<defs>
<linearGradient id="paint0_linear_2_202" x1="275.499" y1="56.2814" x2="275.499" y2="200" gradientUnits="userSpaceOnUse">
<stop stop-color="#F0F0F0"/>
<stop offset="0.348958" stop-color="#F0F0F0"/>
<stop offset="1" stop-color="#F0F0F0" stop-opacity="0"/>
</linearGradient>
</defs>
</svg>

