<svg xmlns="http://www.w3.org/2000/svg" width="550" height="200" fill="none" viewBox="0 0 550 200"><rect width="550" height="200" fill="#000" fill-opacity=".15"/><path fill="url(#paint0_linear_2_202)" d="M100 64C100 59.5817 103.582 56 108 56H443.361C447.779 56 451.361 59.5817 451.361 64V199.719H100V64Z"/><rect width="24" height="24" x="421" y="62" fill="#2D2D2D" fill-opacity=".08" rx="6"/><path fill="#2D2D2D" d="M429.571 70C429.42 70 429.274 70.0602 429.167 70.1674C429.06 70.2746 429 70.4199 429 70.5714C429 70.723 429.06 70.8683 429.167 70.9755L432.192 74L429.167 77.0246C429.06 77.1318 429 77.2771 429 77.4287C429 77.5802 429.06 77.7255 429.167 77.8327C429.274 77.9398 429.42 78 429.571 78C429.723 78 429.868 77.9398 429.975 77.8327L433 74.8081L436.025 77.8327C436.132 77.9398 436.277 78 436.429 78C436.58 78 436.726 77.9398 436.833 77.8327C436.94 77.7255 437 77.5802 437 77.4287C437 77.2771 436.94 77.1318 436.833 77.0246L433.808 74L436.833 70.9755C436.94 70.8683 437 70.723 437 70.5714C437 70.4199 436.94 70.2746 436.833 70.1674C436.726 70.0603 436.58 70.0001 436.429 70.0001C436.277 70.0001 436.132 70.0603 436.025 70.1674L433 73.192L429.975 70.1674C429.868 70.0602 429.723 70 429.571 70Z"/><defs><linearGradient id="paint0_linear_2_202" x1="275.681" x2="275.681" y1="56" y2="199.719" gradientUnits="userSpaceOnUse"><stop stop-color="#F0F0F0"/><stop offset=".349" stop-color="#F0F0F0"/><stop offset="1" stop-color="#F0F0F0" stop-opacity="0"/></linearGradient></defs></svg>