<svg xmlns="http://www.w3.org/2000/svg" width="550" height="200" fill="none" viewBox="0 0 550 200"><rect width="550" height="200" fill="#000" fill-opacity=".15"/><path fill="url(#paint0_linear_2_176)" d="M100 64C100 59.5817 103.582 56 108 56H443.361C447.779 56 451.361 59.5817 451.361 64V199.719H100V64Z"/><path fill="#2D2D2D" d="M361.572 73.0603C361.44 73.0603 361.312 73.113 361.219 73.2067C361.125 73.3005 361.072 73.4277 361.072 73.5603C361.072 73.6929 361.125 73.8201 361.219 73.9139C361.312 74.0076 361.44 74.0603 361.572 74.0603H368.428C368.56 74.0603 368.688 74.0076 368.781 73.9139C368.875 73.8201 368.928 73.6929 368.928 73.5603C368.928 73.4277 368.875 73.3005 368.781 73.2067C368.688 73.113 368.56 73.0603 368.428 73.0603H361.572Z"/><path fill="#2D2D2D" d="M394.377 70.0603C393.623 70.0603 393 70.6832 393 71.4373V76.6833C393 77.4374 393.623 78.0603 394.377 78.0603H399.623C400.377 78.0603 401 77.4374 401 76.6833V71.4373C401 70.6832 400.377 70.0603 399.623 70.0603H394.377ZM394.377 71.0603H399.623C399.84 71.0603 400 71.2199 400 71.4373V76.6833C400 76.9007 399.84 77.0603 399.623 77.0603H394.377C394.16 77.0603 394 76.9007 394 76.6833V71.4373C394 71.2199 394.16 71.0603 394.377 71.0603Z"/><rect width="24" height="24" x="421" y="62.06" fill="#2D2D2D" fill-opacity=".08" rx="6"/><path fill="#2D2D2D" d="M429.571 70.0603C429.42 70.0603 429.274 70.1205 429.167 70.2277C429.06 70.3349 429 70.4802 429 70.6317C429 70.7833 429.06 70.9286 429.167 71.0358L432.192 74.0603L429.167 77.0849C429.06 77.1921 429 77.3374 429 77.489C429 77.6405 429.06 77.7858 429.167 77.893C429.274 78.0001 429.42 78.0603 429.571 78.0603C429.723 78.0603 429.868 78.0001 429.975 77.893L433 74.8684L436.025 77.893C436.132 78.0001 436.277 78.0603 436.429 78.0603C436.58 78.0603 436.726 78.0001 436.833 77.893C436.94 77.7858 437 77.6405 437 77.489C437 77.3374 436.94 77.1921 436.833 77.0849L433.808 74.0603L436.833 71.0358C436.94 70.9286 437 70.7833 437 70.6317C437 70.4802 436.94 70.3349 436.833 70.2277C436.726 70.1206 436.58 70.0604 436.429 70.0604C436.277 70.0604 436.132 70.1206 436.025 70.2277L433 73.2523L429.975 70.2277C429.868 70.1205 429.723 70.0603 429.571 70.0603Z"/><rect width="15.971" height="16.08" x="110" y="65" fill="#2D2D2D" fill-opacity=".66" rx="7.985"/><defs><linearGradient id="paint0_linear_2_176" x1="275.681" x2="275.681" y1="56" y2="199.719" gradientUnits="userSpaceOnUse"><stop stop-color="#F0F0F0"/><stop offset=".349" stop-color="#F0F0F0"/><stop offset="1" stop-color="#F0F0F0" stop-opacity="0"/></linearGradient></defs></svg>