<svg width="550" height="200" viewBox="0 0 550 200" fill="none" xmlns="http://www.w3.org/2000/svg">
<rect width="550" height="200" rx="26" fill="#007AFF" fill-opacity="0.2"/>
<path d="M99.8185 74.2814C99.8185 64.3402 107.877 56.2814 117.818 56.2814H433.18C443.121 56.2814 451.18 64.3402 451.18 74.2814V200H99.8185V74.2814Z" fill="url(#paint0_linear_2_188)"/>
<path d="M358.572 76.387C358.44 76.387 358.312 76.4396 358.219 76.5334C358.125 76.6272 358.072 76.7544 358.072 76.887C358.072 77.0196 358.125 77.1467 358.219 77.2405C358.312 77.3343 358.44 77.387 358.572 77.387H365.428C365.56 77.387 365.688 77.3343 365.781 77.2405C365.875 77.1467 365.928 77.0196 365.928 76.887C365.928 76.7544 365.875 76.6272 365.781 76.5334C365.688 76.4396 365.56 76.387 365.428 76.387H358.572Z" fill="#FAFAFA"/>
<path d="M391.377 73.387C390.623 73.387 390 74.0099 390 74.7639V80.01C390 80.7641 390.623 81.387 391.377 81.387H396.623C397.377 81.387 398 80.7641 398 80.01V74.7639C398 74.0099 397.377 73.387 396.623 73.387H391.377ZM391.377 74.387H396.623C396.84 74.387 397 74.5466 397 74.7639V80.01C397 80.2274 396.84 80.387 396.623 80.387H391.377C391.16 80.387 391 80.2274 391 80.01V74.7639C391 74.5466 391.16 74.387 391.377 74.387Z" fill="#FAFAFA"/>
<rect x="418" y="65.387" width="24" height="24" rx="6" fill="#FAFAFA" fill-opacity="0.08"/>
<path d="M426.571 73.387C426.42 73.387 426.274 73.4472 426.167 73.5544C426.06 73.6615 426 73.8069 426 73.9584C426 74.1099 426.06 74.2553 426.167 74.3624L429.192 77.387L426.167 80.4116C426.06 80.5188 426 80.6641 426 80.8156C426 80.9671 426.06 81.1125 426.167 81.2196C426.274 81.3268 426.42 81.387 426.571 81.387C426.723 81.387 426.868 81.3268 426.975 81.2196L430 78.195L433.025 81.2196C433.132 81.3268 433.277 81.387 433.429 81.387C433.58 81.387 433.726 81.3268 433.833 81.2196C433.94 81.1125 434 80.9671 434 80.8156C434 80.6641 433.94 80.5188 433.833 80.4116L430.808 77.387L433.833 74.3624C433.94 74.2553 434 74.1099 434 73.9584C434 73.8069 433.94 73.6615 433.833 73.5544C433.726 73.4472 433.58 73.387 433.429 73.387C433.277 73.387 433.132 73.4472 433.025 73.5544L430 76.579L426.975 73.5544C426.868 73.4472 426.723 73.387 426.571 73.387Z" fill="#FAFAFA"/>
<rect x="116.788" y="69.3467" width="15.971" height="16.0804" rx="7.98548" fill="#FAFAFA" fill-opacity="0.66"/>
<defs>
<linearGradient id="paint0_linear_2_188" x1="275.499" y1="56.2814" x2="275.499" y2="200" gradientUnits="userSpaceOnUse">
<stop stop-color="#2D2D2D"/>
<stop offset="0.348958" stop-color="#2D2D2D"/>
<stop offset="1" stop-color="#2D2D2D" stop-opacity="0"/>
</linearGradient>
</defs>
</svg>

