<svg width="400" height="400" viewBox="0 0 400 400" fill="none" xmlns="http://www.w3.org/2000/svg">
<g opacity="0.8" clip-path="url(#clip0_1_9)">
<rect width="400" height="400" fill="#333333"/>
<rect x="75" y="329" width="251" height="62" rx="31" fill="#1A1A1A"/>
<rect x="75.5" y="329.5" width="250" height="61" rx="30.5" stroke="#757575" stroke-opacity="0.4"/>
<path d="M149 -10H409V32H173C159.745 32 149 21.2548 149 8V-10Z" fill="#1A1A1A"/>
<path d="M149.5 -9.5H408.5V31.5H173C160.021 31.5 149.5 20.9787 149.5 8V-9.5Z" stroke="#757575" stroke-opacity="0.4"/>
<rect x="36" y="64" width="329" height="233" rx="8" fill="#151515"/>
<rect x="35.5" y="63.5" width="330" height="234" rx="8.5" stroke="#757575" stroke-opacity="0.4"/>
<path d="M36 72C36 67.5817 39.5817 64 44 64H126V297H44C39.5817 297 36 293.418 36 289V72Z" fill="#222222"/>
</g>
<defs>
<clipPath id="clip0_1_9">
<rect width="400" height="400" fill="white"/>
</clipPath>
</defs>
</svg>
