<svg width="550" height="200" viewBox="0 0 550 200" fill="none" xmlns="http://www.w3.org/2000/svg">
<rect width="550" height="200" rx="26" fill="#007AFF" fill-opacity="0.2"/>
<path d="M99.8185 74.2814C99.8185 64.3402 107.877 56.2814 117.818 56.2814H433.18C443.121 56.2814 451.18 64.3402 451.18 74.2814V200H99.8185V74.2814Z" fill="url(#paint0_linear_2_114)"/>
<path d="M358.928 76.387C358.795 76.387 358.668 76.4396 358.574 76.5334C358.481 76.6272 358.428 76.7544 358.428 76.887C358.428 77.0196 358.481 77.1467 358.574 77.2405C358.668 77.3343 358.795 77.387 358.928 77.387H365.783C365.916 77.387 366.043 77.3343 366.137 77.2405C366.231 77.1467 366.283 77.0196 366.283 76.887C366.283 76.7544 366.231 76.6272 366.137 76.5334C366.043 76.4396 365.916 76.387 365.783 76.387H358.928Z" fill="#FAFAFA"/>
<path d="M391.733 73.387C390.979 73.387 390.356 74.0099 390.356 74.7639V80.01C390.356 80.7641 390.979 81.387 391.733 81.387H396.979C397.733 81.387 398.356 80.7641 398.356 80.01V74.7639C398.356 74.0099 397.733 73.387 396.979 73.387H391.733ZM391.733 74.387H396.979C397.196 74.387 397.356 74.5466 397.356 74.7639V80.01C397.356 80.2274 397.196 80.387 396.979 80.387H391.733C391.515 80.387 391.356 80.2274 391.356 80.01V74.7639C391.356 74.5466 391.515 74.387 391.733 74.387Z" fill="#FAFAFA"/>
<rect x="418.356" y="65.387" width="24" height="24" rx="6" fill="#FAFAFA" fill-opacity="0.08"/>
<path d="M426.927 73.387C426.776 73.387 426.63 73.4472 426.523 73.5544C426.416 73.6615 426.356 73.8069 426.356 73.9584C426.356 74.1099 426.416 74.2553 426.523 74.3624L429.548 77.387L426.523 80.4116C426.416 80.5188 426.356 80.6641 426.356 80.8156C426.356 80.9671 426.416 81.1125 426.523 81.2196C426.63 81.3268 426.776 81.387 426.927 81.387C427.079 81.387 427.224 81.3268 427.331 81.2196L430.356 78.195L433.38 81.2196C433.487 81.3268 433.633 81.387 433.784 81.387C433.936 81.387 434.081 81.3268 434.188 81.2196C434.296 81.1125 434.356 80.9671 434.356 80.8156C434.356 80.6641 434.296 80.5188 434.188 80.4116L431.164 77.387L434.188 74.3624C434.296 74.2553 434.356 74.1099 434.356 73.9584C434.356 73.8069 434.296 73.6615 434.188 73.5544C434.081 73.4472 433.936 73.387 433.784 73.387C433.633 73.387 433.487 73.4472 433.38 73.5544L430.356 76.579L427.331 73.5544C427.224 73.4472 427.079 73.387 426.927 73.387Z" fill="#FAFAFA"/>
<defs>
<linearGradient id="paint0_linear_2_114" x1="275.499" y1="56.2814" x2="275.499" y2="200" gradientUnits="userSpaceOnUse">
<stop stop-color="#2D2D2D"/>
<stop offset="0.348958" stop-color="#2D2D2D"/>
<stop offset="1" stop-color="#2D2D2D" stop-opacity="0"/>
</linearGradient>
</defs>
</svg>

