<svg xmlns="http://www.w3.org/2000/svg" width="550" height="200" fill="none" viewBox="0 0 550 200"><rect width="550" height="200" fill="#000" fill-opacity=".15"/><path fill="url(#paint0_linear_2_138)" d="M99.8185 64C99.8185 59.5817 103.4 56 107.818 56H443.18C447.598 56 451.18 59.5817 451.18 64V199.719H99.8185V64Z"/><path fill="#FAFAFA" d="M430.377 70.0402C429.623 70.0402 429 70.6631 429 71.4171V76.6632C429 77.4173 429.623 78.0402 430.377 78.0402H435.623C436.377 78.0402 437 77.4173 437 76.6632V71.4171C437 70.6631 436.377 70.0402 435.623 70.0402H430.377ZM430.377 71.0402H435.623C435.84 71.0402 436 71.1998 436 71.4171V76.6632C436 76.8806 435.84 77.0402 435.623 77.0402H430.377C430.16 77.0402 430 76.8806 430 76.6632V71.4171C430 71.1998 430.16 71.0402 430.377 71.0402Z"/><rect width="24" height="24" x="106" y="62.06" fill="#FAFAFA" fill-opacity=".08" rx="6"/><path fill="#FAFAFA" d="M114.571 70C114.42 70 114.274 70.0602 114.167 70.1674C114.06 70.2746 114 70.4199 114 70.5714C114 70.723 114.06 70.8683 114.167 70.9755L117.192 74L114.167 77.0246C114.06 77.1318 114 77.2771 114 77.4287C114 77.5802 114.06 77.7255 114.167 77.8327C114.274 77.9398 114.42 78 114.571 78C114.723 78 114.868 77.9398 114.975 77.8327L118 74.8081L121.025 77.8327C121.132 77.9398 121.277 78 121.429 78C121.58 78 121.726 77.9398 121.833 77.8327C121.94 77.7255 122 77.5802 122 77.4287C122 77.2771 121.94 77.1318 121.833 77.0246L118.808 74L121.833 70.9755C121.94 70.8683 122 70.723 122 70.5714C122 70.4199 121.94 70.2746 121.833 70.1674C121.726 70.0603 121.58 70.0001 121.429 70.0001C121.277 70.0001 121.132 70.0603 121.025 70.1674L118 73.192L114.975 70.1674C114.868 70.0602 114.723 70 114.571 70Z"/><defs><linearGradient id="paint0_linear_2_138" x1="275.499" x2="275.499" y1="56" y2="199.719" gradientUnits="userSpaceOnUse"><stop stop-color="#2D2D2D"/><stop offset=".349" stop-color="#2D2D2D"/><stop offset="1" stop-color="#2D2D2D" stop-opacity="0"/></linearGradient></defs></svg>