<svg width="550" height="200" viewBox="0 0 550 200" fill="none" xmlns="http://www.w3.org/2000/svg">
<rect width="550" height="200" rx="26" fill="#007AFF" fill-opacity="0.2"/>
<path d="M99.8185 74.2814C99.8185 64.3402 107.877 56.2814 117.818 56.2814H433.18C443.121 56.2814 451.18 64.3402 451.18 74.2814V200H99.8185V74.2814Z" fill="url(#paint0_linear_2_138)"/>
<path d="M423.617 77.407C422.862 77.407 422.24 78.0299 422.24 78.7839V84.03C422.24 84.7841 422.862 85.407 423.617 85.407H428.863C429.617 85.407 430.24 84.7841 430.24 84.03V78.7839C430.24 78.0299 429.617 77.407 428.863 77.407H423.617ZM423.617 78.407H428.863C429.08 78.407 429.24 78.5666 429.24 78.7839V84.03C429.24 84.2474 429.08 84.407 428.863 84.407H423.617C423.399 84.407 423.24 84.2474 423.24 84.03V78.7839C423.24 78.5666 423.399 78.407 423.617 78.407Z" fill="#FAFAFA"/>
<rect x="112.795" y="69.407" width="24" height="24" rx="6" fill="#FAFAFA" fill-opacity="0.08"/>
<path d="M121.366 77.407C121.215 77.407 121.069 77.4672 120.962 77.5744C120.855 77.6816 120.795 77.8269 120.795 77.9784C120.795 78.1299 120.855 78.2753 120.962 78.3824L123.987 81.407L120.962 84.4316C120.855 84.5388 120.795 84.6841 120.795 84.8356C120.795 84.9872 120.855 85.1325 120.962 85.2397C121.069 85.3468 121.215 85.407 121.366 85.407C121.518 85.407 121.663 85.3468 121.77 85.2397L124.795 82.2151L127.82 85.2397C127.927 85.3468 128.072 85.407 128.224 85.407C128.375 85.407 128.52 85.3468 128.628 85.2397C128.735 85.1325 128.795 84.9872 128.795 84.8356C128.795 84.6841 128.735 84.5388 128.628 84.4316L125.603 81.407L128.628 78.3824C128.735 78.2753 128.795 78.1299 128.795 77.9784C128.795 77.8269 128.735 77.6816 128.628 77.5744C128.52 77.4673 128.375 77.4071 128.224 77.4071C128.072 77.4071 127.927 77.4673 127.82 77.5744L124.795 80.599L121.77 77.5744C121.663 77.4672 121.518 77.407 121.366 77.407Z" fill="#FAFAFA"/>
<defs>
<linearGradient id="paint0_linear_2_138" x1="275.499" y1="56.2814" x2="275.499" y2="200" gradientUnits="userSpaceOnUse">
<stop stop-color="#2D2D2D"/>
<stop offset="0.348958" stop-color="#2D2D2D"/>
<stop offset="1" stop-color="#2D2D2D" stop-opacity="0"/>
</linearGradient>
</defs>
</svg>

