<svg width="550" height="200" viewBox="0 0 550 200" fill="none" xmlns="http://www.w3.org/2000/svg">
<rect width="550" height="200" rx="26" fill="#007AFF" fill-opacity="0.2"/>
<path d="M99.8185 74.2814C99.8185 64.3402 107.877 56.2814 117.819 56.2814H433.18C443.121 56.2814 451.18 64.3402 451.18 74.2814V200H99.8185V74.2814Z" fill="url(#paint0_linear_2_135)"/>
<path d="M423.617 73.3868C422.862 73.3868 422.24 74.0097 422.24 74.7638V80.0099C422.24 80.7639 422.862 81.3868 423.617 81.3868H428.863C429.617 81.3868 430.24 80.7639 430.24 80.0099V74.7638C430.24 74.0097 429.617 73.3868 428.863 73.3868H423.617ZM423.617 74.3868H428.863C429.08 74.3868 429.24 74.5464 429.24 74.7638V80.0099C429.24 80.2272 429.08 80.3868 428.863 80.3868H423.617C423.399 80.3868 423.24 80.2272 423.24 80.0099V74.7638C423.24 74.5464 423.399 74.3868 423.617 74.3868Z" fill="#2D2D2D"/>
<rect x="112.795" y="65.387" width="24" height="24" rx="6" fill="#2D2D2D" fill-opacity="0.08"/>
<path d="M121.366 73.387C121.215 73.387 121.069 73.4472 120.962 73.5544C120.855 73.6615 120.795 73.8069 120.795 73.9584C120.795 74.1099 120.855 74.2553 120.962 74.3624L123.987 77.387L120.962 80.4116C120.855 80.5188 120.795 80.6641 120.795 80.8156C120.795 80.9671 120.855 81.1125 120.962 81.2196C121.069 81.3268 121.215 81.387 121.366 81.387C121.518 81.387 121.663 81.3268 121.77 81.2196L124.795 78.195L127.82 81.2196C127.927 81.3268 128.072 81.387 128.224 81.387C128.375 81.387 128.52 81.3268 128.628 81.2196C128.735 81.1125 128.795 80.9671 128.795 80.8156C128.795 80.6641 128.735 80.5188 128.628 80.4116L125.603 77.387L128.628 74.3624C128.735 74.2553 128.795 74.1099 128.795 73.9584C128.795 73.8069 128.735 73.6615 128.628 73.5544C128.52 73.4472 128.375 73.387 128.224 73.387C128.072 73.387 127.927 73.4472 127.82 73.5544L124.795 76.579L121.77 73.5544C121.663 73.4472 121.518 73.387 121.366 73.387Z" fill="#2D2D2D"/>
<defs>
<linearGradient id="paint0_linear_2_135" x1="275.499" y1="56.2814" x2="275.499" y2="200" gradientUnits="userSpaceOnUse">
<stop stop-color="#F0F0F0"/>
<stop offset="0.348958" stop-color="#F0F0F0"/>
<stop offset="1" stop-color="#F0F0F0" stop-opacity="0"/>
</linearGradient>
</defs>
</svg>

