<svg xmlns="http://www.w3.org/2000/svg" width="550" height="200" fill="none" viewBox="0 0 550 200"><rect width="550" height="200" fill="#000" fill-opacity=".15"/><path fill="url(#paint0_linear_2_135)" d="M99.8185 64.2814C99.8185 59.8631 103.4 56.2814 107.819 56.2814H443.18C447.598 56.2814 451.18 59.8631 451.18 64.2814V200H99.8185V64.2814Z"/><path fill="#2D2D2D" d="M430.377 73.0402C429.623 73.0402 429 73.6631 429 74.4171V79.6632C429 80.4173 429.623 81.0402 430.377 81.0402H435.623C436.377 81.0402 437 80.4173 437 79.6632V74.4171C437 73.6631 436.377 73.0402 435.623 73.0402H430.377ZM430.377 74.0402H435.623C435.84 74.0402 436 74.1998 436 74.4171V79.6632C436 79.8806 435.84 80.0402 435.623 80.0402H430.377C430.16 80.0402 430 79.8806 430 79.6632V74.4171C430 74.1998 430.16 74.0402 430.377 74.0402Z"/><rect width="24" height="24" x="106" y="65.387" fill="#2D2D2D" fill-opacity=".08" rx="6"/><path fill="#2D2D2D" d="M114.571 73C114.42 73 114.274 73.0602 114.167 73.1674C114.06 73.2746 114 73.4199 114 73.5714C114 73.723 114.06 73.8683 114.167 73.9755L117.192 77L114.167 80.0246C114.06 80.1318 114 80.2771 114 80.4287C114 80.5802 114.06 80.7255 114.167 80.8327C114.274 80.9398 114.42 81 114.571 81C114.723 81 114.868 80.9398 114.975 80.8327L118 77.8081L121.025 80.8327C121.132 80.9398 121.277 81 121.429 81C121.58 81 121.726 80.9398 121.833 80.8327C121.94 80.7255 122 80.5802 122 80.4287C122 80.2771 121.94 80.1318 121.833 80.0246L118.808 77L121.833 73.9755C121.94 73.8683 122 73.723 122 73.5714C122 73.4199 121.94 73.2746 121.833 73.1674C121.726 73.0603 121.58 73.0001 121.429 73.0001C121.277 73.0001 121.132 73.0603 121.025 73.1674L118 76.192L114.975 73.1674C114.868 73.0602 114.723 73 114.571 73Z"/><defs><linearGradient id="paint0_linear_2_135" x1="275.499" x2="275.499" y1="56.281" y2="200" gradientUnits="userSpaceOnUse"><stop stop-color="#F0F0F0"/><stop offset=".349" stop-color="#F0F0F0"/><stop offset="1" stop-color="#F0F0F0" stop-opacity="0"/></linearGradient></defs></svg>