<svg width="550" height="200" viewBox="0 0 550 200" fill="none" xmlns="http://www.w3.org/2000/svg">
<rect width="550" height="200" rx="26" fill="#007AFF" fill-opacity="0.2"/>
<path d="M99.8185 74.2814C99.8185 64.3403 107.877 56.2814 117.819 56.2814H433.18C443.121 56.2814 451.18 64.3403 451.18 74.2814V200H99.8185V74.2814Z" fill="url(#paint0_linear_2_83)"/>
<rect x="108.802" y="65.3267" width="23.9564" height="24.1206" rx="6" fill="#2D2D2D" fill-opacity="0.08"/>
<path d="M151.297 76.3819C151.165 76.3819 151.038 76.4348 150.944 76.5291C150.851 76.6233 150.798 76.7511 150.798 76.8844C150.798 77.0177 150.851 77.1455 150.944 77.2397C151.038 77.334 151.165 77.3869 151.297 77.3869H158.14C158.273 77.3869 158.4 77.334 158.493 77.2397C158.587 77.1455 158.639 77.0177 158.639 76.8844C158.639 76.7511 158.587 76.6233 158.493 76.5291C158.4 76.4348 158.273 76.3819 158.14 76.3819H151.297Z" fill="#2D2D2D"/>
<path d="M186.039 73.3668C185.286 73.3668 184.664 73.9929 184.664 74.7507V80.0231C184.664 80.781 185.286 81.407 186.039 81.407H191.275C192.028 81.407 192.65 80.781 192.65 80.0231V74.7507C192.65 73.9929 192.028 73.3668 191.275 73.3668H186.039ZM186.039 74.3718H191.275C191.492 74.3718 191.652 74.5323 191.652 74.7507V80.0231C191.652 80.2416 191.492 80.402 191.275 80.402H186.039C185.822 80.402 185.662 80.2416 185.662 80.0231V74.7507C185.662 74.5323 185.822 74.3718 186.039 74.3718Z" fill="#2D2D2D"/>
<path d="M117.358 73.3668C117.207 73.3668 117.062 73.4274 116.955 73.5351C116.848 73.6428 116.788 73.7888 116.788 73.9411C116.788 74.0934 116.848 74.2395 116.955 74.3472L119.974 77.387L116.955 80.4267C116.848 80.5344 116.788 80.6805 116.788 80.8328C116.788 80.9851 116.848 81.1312 116.955 81.2389C117.062 81.3465 117.207 81.407 117.358 81.407C117.509 81.407 117.654 81.3465 117.761 81.2389L120.78 78.1991L123.8 81.2389C123.906 81.3465 124.052 81.407 124.203 81.407C124.354 81.407 124.499 81.3465 124.606 81.2389C124.713 81.1312 124.773 80.9851 124.773 80.8328C124.773 80.6805 124.713 80.5344 124.606 80.4267L121.587 77.387L124.606 74.3472C124.713 74.2395 124.773 74.0934 124.773 73.9411C124.773 73.7888 124.713 73.6428 124.606 73.5351C124.499 73.4274 124.354 73.3669 124.203 73.3669C124.052 73.3669 123.906 73.4274 123.8 73.5351L120.78 76.5749L117.761 73.5351C117.654 73.4274 117.509 73.3668 117.358 73.3668Z" fill="#2D2D2D"/>
<defs>
<linearGradient id="paint0_linear_2_83" x1="275.499" y1="56.2814" x2="275.499" y2="200" gradientUnits="userSpaceOnUse">
<stop stop-color="#F0F0F0"/>
<stop offset="0.348958" stop-color="#F0F0F0"/>
<stop offset="1" stop-color="#F0F0F0" stop-opacity="0"/>
</linearGradient>
</defs>
</svg>

