<svg xmlns="http://www.w3.org/2000/svg" width="550" height="200" fill="none" viewBox="0 0 550 200"><rect width="550" height="200" fill="#000" fill-opacity=".15"/><path fill="url(#paint0_linear_2_83)" d="M100 64C100 59.5817 103.582 56 108 56H443.361C447.779 56 451.361 59.5817 451.361 64V199.719H100V64Z"/><rect width="23.956" height="24.121" x="106" y="62" fill="#2D2D2D" fill-opacity=".08" rx="4"/><path fill="#2D2D2D" d="M148.495 73.0552C148.363 73.0552 148.236 73.1082 148.142 73.2024C148.048 73.2967 147.996 73.4245 147.996 73.5577C147.996 73.691 148.048 73.8188 148.142 73.9131C148.236 74.0073 148.363 74.0603 148.495 74.0603H155.338C155.47 74.0603 155.597 74.0073 155.691 73.9131C155.785 73.8188 155.837 73.691 155.837 73.5577C155.837 73.4245 155.785 73.2967 155.691 73.2024C155.597 73.1082 155.47 73.0552 155.338 73.0552H148.495Z"/><path fill="#2D2D2D" d="M183.237 70.0402C182.484 70.0402 181.862 70.6662 181.862 71.424V76.6965C181.862 77.4543 182.484 78.0804 183.237 78.0804H188.473C189.226 78.0804 189.848 77.4543 189.848 76.6965V71.424C189.848 70.6662 189.226 70.0402 188.473 70.0402H183.237ZM183.237 71.0452H188.473C188.69 71.0452 188.849 71.2056 188.849 71.424V76.6965C188.849 76.9149 188.69 77.0753 188.473 77.0753H183.237C183.02 77.0753 182.86 76.9149 182.86 76.6965V71.424C182.86 71.2056 183.02 71.0452 183.237 71.0452Z"/><path fill="#2D2D2D" d="M114.556 70.0402C114.405 70.0402 114.259 70.1007 114.153 70.2084C114.046 70.3161 113.985 70.4622 113.985 70.6145C113.985 70.7668 114.046 70.9128 114.153 71.0205L117.172 74.0603L114.153 77.1001C114.046 77.2078 113.985 77.3538 113.985 77.5061C113.985 77.6584 114.046 77.8045 114.153 77.9122C114.259 78.0199 114.405 78.0804 114.556 78.0804C114.707 78.0804 114.852 78.0199 114.959 77.9122L117.978 74.8724L120.997 77.9122C121.104 78.0199 121.249 78.0804 121.401 78.0804C121.552 78.0804 121.697 78.0199 121.804 77.9122C121.911 77.8045 121.971 77.6584 121.971 77.5061C121.971 77.3538 121.911 77.2078 121.804 77.1001L118.785 74.0603L121.804 71.0205C121.911 70.9128 121.971 70.7668 121.971 70.6145C121.971 70.4622 121.911 70.3161 121.804 70.2084C121.697 70.1007 121.552 70.0402 121.401 70.0402C121.249 70.0402 121.104 70.1007 120.997 70.2084L117.978 73.2482L114.959 70.2084C114.852 70.1007 114.707 70.0402 114.556 70.0402Z"/><defs><linearGradient id="paint0_linear_2_83" x1="275.681" x2="275.681" y1="56" y2="199.719" gradientUnits="userSpaceOnUse"><stop stop-color="#F0F0F0"/><stop offset=".349" stop-color="#F0F0F0"/><stop offset="1" stop-color="#F0F0F0" stop-opacity="0"/></linearGradient></defs></svg>