<svg width="400" height="400" viewBox="0 0 400 400" fill="none" xmlns="http://www.w3.org/2000/svg">
<g opacity="0.8" clip-path="url(#clip0_1_14)">
<rect width="400" height="400" fill="#CCCCCC"/>
<rect x="75" y="329" width="251" height="62" rx="31" fill="#E6E6E6"/>
<rect x="75.5" y="329.5" width="250" height="61" rx="30.5" stroke="#757575" stroke-opacity="0.4"/>
<path d="M149 -10H409V32H173C159.745 32 149 21.2548 149 8V-10Z" fill="#E6E6E6"/>
<path d="M149.5 -9.5H408.5V31.5H173C160.021 31.5 149.5 20.9787 149.5 8V-9.5Z" stroke="#757575" stroke-opacity="0.4"/>
<rect x="36" y="64" width="329" height="233" rx="8" fill="#FBFBFB"/>
<rect x="35.5" y="63.5" width="330" height="234" rx="8.5" stroke="#757575" stroke-opacity="0.4"/>
<path d="M36 72C36 67.5817 39.5817 64 44 64H126V297H44C39.5817 297 36 293.418 36 289V72Z" fill="#F0F0F0"/>
<rect opacity="0.8" x="135" y="106" width="80" height="12" rx="6" fill="#2D2D2D"/>
<rect opacity="0.8" x="46" y="106" width="52" height="12" rx="6" fill="#2D2D2D"/>
<g filter="url(#filter0_d_1_14)">
<rect opacity="0.8" x="324" y="254" width="28" height="28" rx="14" fill="#007AFF"/>
</g>
<rect x="46" y="130" width="70" height="24" rx="8" fill="#007AFF" fill-opacity="0.15"/>
</g>
<defs>
<filter id="filter0_d_1_14" x="320" y="254" width="36" height="36" filterUnits="userSpaceOnUse" color-interpolation-filters="sRGB">
<feFlood flood-opacity="0" result="BackgroundImageFix"/>
<feColorMatrix in="SourceAlpha" type="matrix" values="0 0 0 0 0 0 0 0 0 0 0 0 0 0 0 0 0 0 127 0" result="hardAlpha"/>
<feOffset dy="4"/>
<feGaussianBlur stdDeviation="2"/>
<feComposite in2="hardAlpha" operator="out"/>
<feColorMatrix type="matrix" values="0 0 0 0 0 0 0 0 0 0 0 0 0 0 0 0 0 0 0.25 0"/>
<feBlend mode="normal" in2="BackgroundImageFix" result="effect1_dropShadow_1_14"/>
<feBlend mode="normal" in="SourceGraphic" in2="effect1_dropShadow_1_14" result="shape"/>
</filter>
<clipPath id="clip0_1_14">
<rect width="400" height="400" fill="white"/>
</clipPath>
</defs>
</svg>
