<svg width="26" height="26" viewBox="0 0 26 26" fill="none" xmlns="http://www.w3.org/2000/svg">
<path d="M12.6882 0.000436327C12.7702 -0.000290159 12.8521 -0.000220688 12.934 0.000644176L12.7999 12.7999L12.6882 0.000436327Z" fill="#FF0000"/>
<path d="M12.9118 0.000427246C12.9937 0.00115373 13.0756 0.00264147 13.1574 0.0049247L12.8 12.7999L12.9118 0.000427246Z" fill="#FF0400"/>
<path d="M13.1351 0.0043335C13.217 0.00647836 13.2989 0.00938435 13.3807 0.0131206L12.8 12.7999L13.1351 0.0043335Z" fill="#FF0900"/>
<path d="M13.3584 0.012146C13.4402 0.0157092 13.522 0.0200681 13.6037 0.0252227L12.8 12.7999L13.3584 0.012146Z" fill="#FF0D00"/>
<path d="M13.5815 0.0238037C13.6632 0.0288199 13.7449 0.034597 13.8266 0.04117L12.8 12.7999L13.5815 0.0238037Z" fill="#FF1100"/>
<path d="M13.8043 0.0394287C13.886 0.0458287 13.9676 0.053059 14.0491 0.0610503L12.8 12.7999L13.8043 0.0394287Z" fill="#FF1500"/>
<path d="M14.0269 0.0588989C14.1084 0.0667519 14.1899 0.0754004 14.2713 0.0848101L12.8 12.8L14.0269 0.0588989Z" fill="#FF1A00"/>
<path d="M14.249 0.0822144C14.3304 0.0914857 14.4117 0.101553 14.4929 0.112381L12.8 12.7999L14.249 0.0822144Z" fill="#FF1E00"/>
<path d="M14.4708 0.109436C14.552 0.120126 14.6331 0.131611 14.7141 0.143858L12.8 12.7999L14.4708 0.109436Z" fill="#FF2200"/>
<path d="M14.692 0.140564C14.773 0.152672 14.8539 0.165541 14.9347 0.179206L12.8 12.7999L14.692 0.140564Z" fill="#FF2600"/>
<path d="M14.9127 0.175476C14.9934 0.189003 15.0741 0.20329 15.1546 0.218373L12.8 12.7999L14.9127 0.175476Z" fill="#FF2B00"/>
<path d="M15.1327 0.214294C15.2132 0.229205 15.2936 0.24491 15.3738 0.261377L12.8 12.7999L15.1327 0.214294Z" fill="#FF2F00"/>
<path d="M15.3519 0.256958C15.4322 0.273287 15.5123 0.290376 15.5923 0.308262L12.8 12.8L15.3519 0.256958Z" fill="#FF3300"/>
<path d="M15.5705 0.303345C15.6504 0.321092 15.7302 0.339599 15.8099 0.358834L12.8 12.7999L15.5705 0.303345Z" fill="#FF3700"/>
<path d="M15.7882 0.353638C15.8678 0.372768 15.9473 0.39266 16.0265 0.413313L12.8 12.8L15.7882 0.353638Z" fill="#FF3C00"/>
<path d="M16.0049 0.407654C16.0842 0.428168 16.1633 0.449445 16.2422 0.471481L12.8 12.7999L16.0049 0.407654Z" fill="#FF4000"/>
<path d="M16.2207 0.465515C16.2996 0.487413 16.3784 0.510039 16.4569 0.533459L12.8 12.8L16.2207 0.465515Z" fill="#FF4400"/>
<path d="M16.4354 0.5271C16.514 0.550347 16.5923 0.574355 16.6704 0.599125L12.8 12.8L16.4354 0.5271Z" fill="#FF4800"/>
<path d="M16.6491 0.592407C16.7272 0.617039 16.8051 0.642396 16.8827 0.66855L12.8 12.8L16.6491 0.592407Z" fill="#FF4D00"/>
<path d="M16.8616 0.661438C16.9392 0.687453 17.0166 0.71416 17.0938 0.741662L12.8 12.8L16.8616 0.661438Z" fill="#FF5100"/>
<path d="M17.0728 0.734131C17.15 0.761461 17.2269 0.789552 17.3036 0.818369L12.8 12.7999L17.0728 0.734131Z" fill="#FF5500"/>
<path d="M17.2827 0.810547C17.3594 0.839226 17.4359 0.868666 17.512 0.898833L12.8 12.7999L17.2827 0.810547Z" fill="#FF5900"/>
<path d="M17.4912 0.890564C17.5675 0.920592 17.6434 0.951347 17.719 0.982828L12.8 12.7999L17.4912 0.890564Z" fill="#FF5E00"/>
<path d="M17.6984 0.974304C17.7741 1.00565 17.8494 1.03772 17.9245 1.07051L12.8 12.7999L17.6984 0.974304Z" fill="#FF6200"/>
<path d="M17.904 1.06165C17.9792 1.0943 18.054 1.12769 18.1284 1.1618L12.8 12.8L17.904 1.06165Z" fill="#FF6600"/>
<path d="M18.1081 1.15247C18.1826 1.18644 18.2569 1.22114 18.3307 1.25653L12.8 12.8L18.1081 1.15247Z" fill="#FF6A00"/>
<path d="M18.3106 1.24683C18.3845 1.28211 18.4581 1.31809 18.5314 1.35476L12.8 12.7999L18.3106 1.24683Z" fill="#FF6F00"/>
<path d="M18.5114 1.34479C18.5847 1.38135 18.6576 1.41861 18.7302 1.45656L12.8 12.7999L18.5114 1.34479Z" fill="#FF7300"/>
<path d="M18.7104 1.44623C18.7831 1.48404 18.8554 1.52258 18.9273 1.56177L12.8 12.7999L18.7104 1.44623Z" fill="#FF7700"/>
<path d="M18.9077 1.55115C18.9797 1.5902 19.0513 1.62999 19.1225 1.67046L12.8 12.8L18.9077 1.55115Z" fill="#FF7B00"/>
<path d="M19.1031 1.65936C19.1744 1.6997 19.2453 1.74073 19.3158 1.78242L12.8 12.7999L19.1031 1.65936Z" fill="#FF8000"/>
<path d="M19.2965 1.77112C19.3671 1.8127 19.4373 1.85494 19.5071 1.89787L12.8 12.8L19.2965 1.77112Z" fill="#FF8400"/>
<path d="M19.488 1.88617C19.5578 1.92896 19.6273 1.97245 19.6963 2.01659L12.8 12.7999L19.488 1.88617Z" fill="#FF8800"/>
<path d="M19.6775 2.00452C19.7466 2.04852 19.8152 2.09322 19.8835 2.13854L12.8 12.7999L19.6775 2.00452Z" fill="#FF8C00"/>
<path d="M19.8648 2.12622C19.9331 2.17144 20.001 2.21731 20.0684 2.26384L12.8 12.7999L19.8648 2.12622Z" fill="#FF9100"/>
<path d="M20.05 2.2511C20.1176 2.29749 20.1846 2.34454 20.2512 2.39224L12.8 12.7999L20.05 2.2511Z" fill="#FF9500"/>
<path d="M20.233 2.37927C20.2997 2.42684 20.3659 2.47506 20.4317 2.52388L12.8 12.7999L20.233 2.37927Z" fill="#FF9900"/>
<path d="M20.4138 2.51062C20.4796 2.55933 20.545 2.60869 20.6099 2.65868L12.8 12.8L20.4138 2.51062Z" fill="#FF9D00"/>
<path d="M20.5922 2.64502C20.6572 2.6949 20.7217 2.74538 20.7857 2.79647L12.8 12.7999L20.5922 2.64502Z" fill="#FFA200"/>
<path d="M20.7682 2.78259C20.8323 2.83359 20.8959 2.8852 20.9591 2.9374L12.8 12.8L20.7682 2.78259Z" fill="#FFA600"/>
<path d="M20.9418 2.92316C21.005 2.97526 21.0678 3.02798 21.1299 3.08129L12.8 12.7999L20.9418 2.92316Z" fill="#FFAA00"/>
<path d="M21.113 3.06677C21.1752 3.11998 21.237 3.17377 21.2983 3.22816L12.8 12.7999L21.113 3.06677Z" fill="#FFAE00"/>
<path d="M21.2816 3.21326C21.3429 3.26754 21.4037 3.3224 21.464 3.37786L12.8 12.7999L21.2816 3.21326Z" fill="#FFB300"/>
<path d="M21.4476 3.36279C21.508 3.41814 21.5678 3.47405 21.6272 3.53054L12.8 12.7999L21.4476 3.36279Z" fill="#FFB700"/>
<path d="M21.611 3.51514C21.6704 3.57153 21.7293 3.6285 21.7876 3.686L12.8 12.7999L21.611 3.51514Z" fill="#FFBB00"/>
<path d="M21.611 3.51514C21.6704 3.57153 21.7293 3.6285 21.7876 3.686L12.8 12.7999L21.611 3.51514Z" fill="#FFBB00"/>
<path d="M21.7717 3.67029C21.8301 3.72772 21.888 3.7857 21.9453 3.8442L12.8 12.7999L21.7717 3.67029Z" fill="#FFBF00"/>
<path d="M21.9296 3.82831C21.987 3.88674 22.0439 3.94572 22.1002 4.00523L12.8 12.8L21.9296 3.82831Z" fill="#FFC400"/>
<path d="M22.0848 3.98901C22.1412 4.04841 22.197 4.10837 22.2522 4.16887L12.8 12.7999L22.0848 3.98901Z" fill="#FFC800"/>
<path d="M22.2372 4.1524C22.2925 4.21277 22.3473 4.27369 22.4014 4.33517L12.8 12.7999L22.2372 4.1524Z" fill="#FFCC00"/>
<path d="M22.3867 4.31848C22.441 4.37982 22.4946 4.44167 22.5477 4.50408L12.8 12.8L22.3867 4.31848Z" fill="#FFD000"/>
<path d="M22.5332 4.487C22.5864 4.5493 22.639 4.61209 22.691 4.6754L12.8 12.7999L22.5332 4.487Z" fill="#FFD500"/>
<path d="M22.6768 4.65814C22.7289 4.72135 22.7804 4.78507 22.8313 4.84924L12.8 12.7999L22.6768 4.65814Z" fill="#FFD900"/>
<path d="M22.8174 4.83173C22.8684 4.89586 22.9188 4.96045 22.9685 5.02552L12.8 12.7999L22.8174 4.83173Z" fill="#FFDD00"/>
<path d="M22.955 5.00781C23.0048 5.07282 23.0541 5.13827 23.1027 5.20421L12.8 12.8L22.955 5.00781Z" fill="#FFE100"/>
<path d="M23.0894 5.18616C23.1381 5.25203 23.1862 5.31834 23.2337 5.38511L12.8 12.7999L23.0894 5.18616Z" fill="#FFE600"/>
<path d="M23.2207 5.36694C23.2683 5.43364 23.3152 5.50075 23.3615 5.56835L12.8 12.7999L23.2207 5.36694Z" fill="#FFEA00"/>
<path d="M23.3489 5.54993C23.3952 5.61742 23.441 5.68536 23.4861 5.75376L12.8 12.7999L23.3489 5.54993Z" fill="#FFEE00"/>
<path d="M23.4738 5.73517C23.519 5.80349 23.5635 5.87223 23.6074 5.94139L12.8 12.8L23.4738 5.73517Z" fill="#FFF200"/>
<path d="M23.5954 5.92249C23.6394 5.99157 23.6828 6.06107 23.7255 6.13099L12.8 12.7999L23.5954 5.92249Z" fill="#FFF700"/>
<path d="M23.7138 6.112C23.7566 6.18181 23.7988 6.25207 23.8402 6.32275L12.8 12.8L23.7138 6.112Z" fill="#FFFB00"/>
<path d="M23.8289 6.30347C23.8704 6.37404 23.9114 6.44503 23.9516 6.51636L12.8 12.7999L23.8289 6.30347Z" fill="#FFFF00"/>
<path d="M23.9406 6.49695C23.9809 6.56825 24.0206 6.63993 24.0595 6.71199L12.8 12.8L23.9406 6.49695Z" fill="#FBFF00"/>
<path d="M24.0489 6.69232C24.088 6.76431 24.1264 6.83668 24.1641 6.9094L12.8 12.8L24.0489 6.69232Z" fill="#F7FF00"/>
<path d="M24.1538 6.88953C24.1916 6.96217 24.2287 7.0352 24.2651 7.10858L12.8 12.7999L24.1538 6.88953Z" fill="#F2FF00"/>
<path d="M24.2552 7.08862C24.2917 7.16193 24.3276 7.23558 24.3627 7.30958L12.8 12.7999L24.2552 7.08862Z" fill="#EEFF00"/>
<path d="M24.3531 7.28943C24.3884 7.36336 24.4229 7.43763 24.4568 7.51222L12.8 12.8L24.3531 7.28943Z" fill="#EAFF00"/>
<path d="M24.4475 7.49182C24.4815 7.56637 24.5148 7.64124 24.5473 7.71641L12.8 12.7999L24.4475 7.49182Z" fill="#E6FF00"/>
<path d="M24.5384 7.69598C24.571 7.77109 24.603 7.84654 24.6342 7.92227L12.8 12.8L24.5384 7.69598Z" fill="#E1FF00"/>
<path d="M24.6257 7.90161C24.657 7.9773 24.6877 8.05327 24.7176 8.12952L12.8 12.8L24.6257 7.90161Z" fill="#DDFF00"/>
<path d="M24.7094 8.10876C24.7394 8.18498 24.7687 8.26146 24.7972 8.33823L12.8 12.8L24.7094 8.10876Z" fill="#D9FF00"/>
<path d="M24.7894 8.31726C24.8181 8.39399 24.8461 8.471 24.8733 8.54825L12.8 12.7999L24.7894 8.31726Z" fill="#D5FF00"/>
<path d="M24.8658 8.52722C24.8932 8.60444 24.9198 8.68193 24.9456 8.75966L12.8 12.8L24.8658 8.52722Z" fill="#D0FF00"/>
<path d="M24.9386 8.73846C24.9646 8.81616 24.9898 8.89407 25.0143 8.97225L12.8 12.8L24.9386 8.73846Z" fill="#CCFF00"/>
<path d="M25.0076 8.95093C25.0322 9.02904 25.0561 9.1074 25.0792 9.186L12.8 12.7999L25.0076 8.95093Z" fill="#C8FF00"/>
<path d="M25.0729 9.16455C25.0962 9.24311 25.1187 9.32185 25.1404 9.40083L12.8 12.8L25.0729 9.16455Z" fill="#C4FF00"/>
<path d="M25.1345 9.37927C25.1564 9.45822 25.1775 9.53733 25.1979 9.61669L12.8 12.7999L25.1345 9.37927Z" fill="#BFFF00"/>
<path d="M25.1923 9.59509C25.2128 9.67442 25.2326 9.75392 25.2516 9.83359L12.8 12.8L25.1923 9.59509Z" fill="#BBFF00"/>
<path d="M25.2464 9.81189C25.2655 9.89153 25.2838 9.97137 25.3015 10.0514L12.8 12.8L25.2464 9.81189Z" fill="#B7FF00"/>
<path d="M25.2966 10.0295C25.3143 10.1095 25.3312 10.1897 25.3475 10.27L12.8 12.8L25.2966 10.0295Z" fill="#B3FF00"/>
<path d="M25.343 10.248C25.3593 10.3283 25.3748 10.4087 25.3897 10.4893L12.8 12.7999L25.343 10.248Z" fill="#AEFF00"/>
<path d="M25.3855 10.4673C25.4008 10.5479 25.4146 10.6286 25.4281 10.7094L12.8 12.8L25.3855 10.4673Z" fill="#AAFF00"/>
<path d="M25.4246 10.6874C25.4381 10.7682 25.4506 10.8491 25.4627 10.9301L12.8 12.8L25.4246 10.6874Z" fill="#A6FF00"/>
<path d="M25.4596 10.908C25.4717 10.989 25.4828 11.0702 25.4935 11.1514L12.8 12.8L25.4596 10.908Z" fill="#A2FF00"/>
<path d="M25.4904 11.1292C25.5011 11.2104 25.5111 11.2917 25.5201 11.3731L12.8 12.8L25.4904 11.1292Z" fill="#9EFF00"/>
<path d="M25.5177 11.351C25.527 11.4324 25.5357 11.5138 25.5433 11.5954L12.8 12.7999L25.5177 11.351Z" fill="#99FF00"/>
<path d="M25.5412 11.5731C25.5488 11.6547 25.5561 11.7363 25.5623 11.8179L12.8 12.7999L25.5412 11.5731Z" fill="#95FF00"/>
<path d="M25.5606 11.7957C25.5672 11.8773 25.5727 11.959 25.5775 12.0408L12.8 12.7999L25.5606 11.7957Z" fill="#91FF00"/>
<path d="M25.5762 12.0185C25.581 12.1003 25.5855 12.1821 25.589 12.2639L12.8 12.7999L25.5762 12.0185Z" fill="#8CFF00"/>
<path d="M25.5879 12.2416C25.5914 12.3235 25.5941 12.4053 25.5962 12.4872L12.8 12.8L25.5879 12.2416Z" fill="#88FF00"/>
<path d="M25.5955 12.4648C25.598 12.5468 25.599 12.6286 25.5997 12.7106L12.8 12.7999L25.5955 12.4648Z" fill="#84FF00"/>
<path d="M25.5996 12.6882C25.6003 12.7702 25.6003 12.8521 25.5993 12.934L12.8 12.7999L25.5996 12.6882Z" fill="#80FF00"/>
<path d="M25.5997 12.9116C25.599 12.9936 25.5973 13.0754 25.5952 13.1573L12.8 12.7999L25.5997 12.9116Z" fill="#7BFF00"/>
<path d="M25.5955 13.135C25.5935 13.2169 25.5907 13.2987 25.5869 13.3806L12.8 12.7999L25.5955 13.135Z" fill="#77FF00"/>
<path d="M25.5879 13.3582C25.5841 13.4401 25.58 13.5219 25.5748 13.6036L12.8 12.7999L25.5879 13.3582Z" fill="#73FF00"/>
<path d="M25.5762 13.5813C25.5713 13.6631 25.5654 13.7448 25.5589 13.8265L12.8 12.7999L25.5762 13.5813Z" fill="#6FFF00"/>
<path d="M25.5606 13.8042C25.554 13.8858 25.5471 13.9675 25.5388 14.049L12.8 12.7999L25.5606 13.8042Z" fill="#6AFF00"/>
<path d="M25.5412 14.0268C25.5333 14.1083 25.5246 14.1898 25.5153 14.2711L12.8 12.7999L25.5412 14.0268Z" fill="#66FF00"/>
<path d="M25.5177 14.2489C25.5083 14.3303 25.4983 14.4116 25.4876 14.4928L12.8 12.7999L25.5177 14.2489Z" fill="#62FF00"/>
<path d="M25.4904 14.4707C25.48 14.5519 25.4682 14.633 25.4561 14.714L12.8 12.7999L25.4904 14.4707Z" fill="#5EFF00"/>
<path d="M25.4596 14.6919C25.4475 14.7729 25.4343 14.8538 25.4208 14.9345L12.8 12.7999L25.4596 14.6919Z" fill="#59FF00"/>
<path d="M25.4246 14.9125C25.4111 14.9933 25.3966 15.074 25.3817 15.1545L12.8 12.7999L25.4246 14.9125Z" fill="#55FF00"/>
<path d="M25.3855 15.1325C25.3707 15.2131 25.3551 15.2935 25.3385 15.3737L12.8 12.7999L25.3855 15.1325Z" fill="#51FF00"/>
<path d="M25.343 15.3518C25.3267 15.4321 25.3098 15.5122 25.2918 15.5922L12.8 12.7999L25.343 15.3518Z" fill="#4DFF00"/>
<path d="M25.2966 15.5704C25.279 15.6503 25.2603 15.7301 25.2411 15.8098L12.8 12.7999L25.2966 15.5704Z" fill="#48FF00"/>
<path d="M25.2464 15.788C25.2272 15.8677 25.2073 15.9471 25.1867 16.0264L12.8 12.7999L25.2464 15.788Z" fill="#44FF00"/>
<path d="M25.1923 16.0048C25.1718 16.0841 25.1505 16.1632 25.1285 16.2421L12.8 12.7999L25.1923 16.0048Z" fill="#40FF00"/>
<path d="M25.1345 16.2206C25.1126 16.2995 25.09 16.3782 25.0665 16.4567L12.8 12.7999L25.1345 16.2206Z" fill="#3CFF00"/>
<path d="M25.0729 16.4353C25.0497 16.5139 25.0257 16.5922 25.0009 16.6703L12.8 12.7999L25.0729 16.4353Z" fill="#37FF00"/>
<path d="M25.0076 16.6489C24.983 16.7271 24.9576 16.805 24.9315 16.8826L12.8 12.7999L25.0076 16.6489Z" fill="#33FF00"/>
<path d="M24.9386 16.8614C24.9126 16.9391 24.8858 17.0165 24.8584 17.0937L12.8 12.7999L24.9386 16.8614Z" fill="#2FFF00"/>
<path d="M24.8658 17.0727C24.8385 17.1499 24.8104 17.2268 24.7816 17.3035L12.8 12.7999L24.8658 17.0727Z" fill="#2BFF00"/>
<path d="M24.7894 17.2826C24.7607 17.3593 24.7313 17.4358 24.7012 17.5119L12.8 12.7999L24.7894 17.2826Z" fill="#26FF00"/>
<path d="M24.7094 17.4911C24.6793 17.5674 24.6486 17.6433 24.6171 17.7189L12.8 12.7999L24.7094 17.4911Z" fill="#22FF00"/>
<path d="M24.6257 17.6983C24.5943 17.774 24.5623 17.8493 24.5295 17.9244L12.8 12.7999L24.6257 17.6983Z" fill="#1EFF00"/>
<path d="M24.5384 17.9039C24.5057 17.979 24.4723 18.0538 24.4382 18.1283L12.8 12.7999L24.5384 17.9039Z" fill="#1AFF00"/>
<path d="M24.4475 18.108C24.4136 18.1825 24.3789 18.2567 24.3435 18.3306L12.8 12.7999L24.4475 18.108Z" fill="#15FF00"/>
<path d="M24.3531 18.3105C24.3178 18.3844 24.2819 18.458 24.2452 18.5312L12.8 12.7999L24.3531 18.3105Z" fill="#11FF00"/>
<path d="M24.2552 18.5112C24.2186 18.5845 24.1814 18.6575 24.1434 18.7301L12.8 12.7999L24.2552 18.5112Z" fill="#0DFF00"/>
<path d="M24.1538 18.7103C24.116 18.7829 24.0774 18.8553 24.0382 18.9272L12.8 12.7999L24.1538 18.7103Z" fill="#09FF00"/>
<path d="M24.0489 18.9076C24.0098 18.9795 23.97 19.0512 23.9296 19.1224L12.8 12.7999L24.0489 18.9076Z" fill="#04FF00"/>
<path d="M23.9406 19.1029C23.9003 19.1742 23.8592 19.2451 23.8175 19.3156L12.8 12.7999L23.9406 19.1029Z" fill="#00FF00"/>
<path d="M23.8289 19.2964C23.7873 19.367 23.7451 19.4372 23.7021 19.5069L12.8 12.7999L23.8289 19.2964Z" fill="#00FF04"/>
<path d="M23.7138 19.4879C23.671 19.5577 23.6275 19.6272 23.5834 19.6962L12.8 12.7999L23.7138 19.4879Z" fill="#00FF09"/>
<path d="M23.5954 19.6774C23.5514 19.7464 23.5067 19.8151 23.4614 19.8833L12.8 12.7999L23.5954 19.6774Z" fill="#00FF0D"/>
<path d="M23.4738 19.8647C23.4286 19.933 23.3827 20.0009 23.3362 20.0683L12.8 12.7999L23.4738 19.8647Z" fill="#00FF11"/>
<path d="M23.3489 20.0499C23.3024 20.1174 23.2554 20.1845 23.2077 20.2511L12.8 12.7999L23.3489 20.0499Z" fill="#00FF15"/>
<path d="M23.2207 20.2329C23.1732 20.2996 23.1249 20.3658 23.0761 20.4316L12.8 12.7999L23.2207 20.2329Z" fill="#00FF1A"/>
<path d="M23.0894 20.4136C23.0407 20.4795 22.9913 20.5449 22.9413 20.6098L12.8 12.7999L23.0894 20.4136Z" fill="#00FF1E"/>
<path d="M22.955 20.5921C22.9051 20.657 22.8546 20.7216 22.8035 20.7856L12.8 12.7999L22.955 20.5921Z" fill="#00FF22"/>
<path d="M22.8174 20.7681C22.7664 20.8322 22.7148 20.8958 22.6626 20.9589L12.8 12.7999L22.8174 20.7681Z" fill="#00FF26"/>
<path d="M22.6768 20.9417C22.6247 21.0049 22.572 21.0676 22.5187 21.1298L12.8 12.7999L22.6768 20.9417Z" fill="#00FF2B"/>
<path d="M22.5332 21.1129C22.48 21.1751 22.4262 21.2369 22.3718 21.2982L12.8 12.7999L22.5332 21.1129Z" fill="#00FF2F"/>
<path d="M22.3867 21.2814C22.3324 21.3428 22.2775 21.4036 22.2221 21.4639L12.8 12.7999L22.3867 21.2814Z" fill="#00FF33"/>
<path d="M22.2372 21.4475C22.1818 21.5079 22.1259 21.5677 22.0694 21.627L12.8 12.7999L22.2372 21.4475Z" fill="#00FF37"/>
<path d="M22.0848 21.6108C22.0285 21.6703 21.9715 21.7292 21.914 21.7875L12.8 12.7999L22.0848 21.6108Z" fill="#00FF3C"/>
<path d="M21.9296 21.7715C21.8722 21.83 21.8142 21.8878 21.7557 21.9452L12.8 12.7999L21.9296 21.7715Z" fill="#00FF40"/>
<path d="M21.7717 21.9295C21.7133 21.9869 21.6543 22.0438 21.5947 22.1001L12.8 12.7999L21.7717 21.9295Z" fill="#00FF44"/>
<path d="M21.611 22.0847C21.5516 22.1411 21.4916 22.1969 21.4311 22.2521L12.8 12.7999L21.611 22.0847Z" fill="#00FF48"/>
<path d="M21.4476 22.2371C21.3872 22.2924 21.3263 22.3472 21.2648 22.4013L12.8 12.7999L21.4476 22.2371Z" fill="#00FF4D"/>
<path d="M21.2816 22.3866C21.2202 22.4408 21.1584 22.4945 21.096 22.5476L12.8 12.7999L21.2816 22.3866Z" fill="#00FF51"/>
<path d="M21.113 22.5331C21.0507 22.5863 20.9879 22.6389 20.9246 22.6909L12.8 12.7999L21.113 22.5331Z" fill="#00FF55"/>
<path d="M20.9418 22.6767C20.8786 22.7288 20.8149 22.7803 20.7507 22.8312L12.8 12.7999L20.9418 22.6767Z" fill="#00FF59"/>
<path d="M20.7682 22.8173C20.7041 22.8683 20.6395 22.9187 20.5744 22.9684L12.8 12.7999L20.7682 22.8173Z" fill="#00FF5E"/>
<path d="M20.5922 22.9548C20.5272 23.0047 20.4617 23.054 20.3958 23.1026L12.8 12.7999L20.5922 22.9548Z" fill="#00FF62"/>
<path d="M20.4138 23.0893C20.3479 23.138 20.2816 23.1861 20.2148 23.2335L12.8 12.7999L20.4138 23.0893Z" fill="#00FF66"/>
<path d="M20.233 23.2206C20.1663 23.2682 20.0992 23.3151 20.0316 23.3614L12.8 12.7999L20.233 23.2206Z" fill="#00FF6A"/>
<path d="M20.05 23.3487C19.9825 23.3951 19.9146 23.4409 19.8462 23.486L12.8 12.7999L20.05 23.3487Z" fill="#00FF6F"/>
<path d="M19.8648 23.4737C19.7965 23.5189 19.7278 23.5634 19.6586 23.6073L12.8 12.7999L19.8648 23.4737Z" fill="#00FF73"/>
<path d="M19.6775 23.5953C19.6084 23.6393 19.5389 23.6827 19.469 23.7254L12.8 12.7999L19.6775 23.5953Z" fill="#00FF77"/>
<path d="M19.488 23.7137C19.4182 23.7565 19.3479 23.7986 19.2773 23.8401L12.8 12.7999L19.488 23.7137Z" fill="#00FF7B"/>
<path d="M19.2965 23.8288C19.2259 23.8703 19.155 23.9112 19.0836 23.9514L12.8 12.7999L19.2965 23.8288Z" fill="#00FF80"/>
<path d="M19.1031 23.9405C19.0318 23.9808 18.9601 24.0205 18.888 24.0594L12.8 12.7999L19.1031 23.9405Z" fill="#00FF84"/>
<path d="M18.9077 24.0488C18.8357 24.0878 18.7633 24.1262 18.6906 24.164L12.8 12.7999L18.9077 24.0488Z" fill="#00FF88"/>
<path d="M18.7104 24.1536C18.6378 24.1915 18.5647 24.2286 18.4914 24.265L12.8 12.7999L18.7104 24.1536Z" fill="#00FF8C"/>
<path d="M18.5114 24.2551C18.4381 24.2916 18.3644 24.3274 18.2904 24.3626L12.8 12.7999L18.5114 24.2551Z" fill="#00FF91"/>
<path d="M18.3106 24.353C18.2366 24.3883 18.1624 24.4228 18.0878 24.4567L12.8 12.7999L18.3106 24.353Z" fill="#00FF95"/>
<path d="M18.1081 24.4474C18.0336 24.4814 17.9587 24.5146 17.8835 24.5472L12.8 12.7999L18.1081 24.4474Z" fill="#00FF99"/>
<path d="M17.904 24.5383C17.8289 24.5709 17.7535 24.6029 17.6777 24.6341L12.8 12.7999L17.904 24.5383Z" fill="#00FF9D"/>
<path d="M17.6984 24.6256C17.6227 24.6569 17.5467 24.6875 17.4704 24.7174L12.8 12.7999L17.6984 24.6256Z" fill="#00FFA2"/>
<path d="M17.4912 24.7093C17.415 24.7393 17.3385 24.7686 17.2618 24.7971L12.8 12.7999L17.4912 24.7093Z" fill="#00FFA6"/>
<path d="M17.2827 24.7893C17.206 24.818 17.129 24.846 17.0517 24.8731L12.8 12.7999L17.2827 24.7893Z" fill="#00FFAA"/>
<path d="M17.0728 24.8657C16.9956 24.8931 16.9181 24.9197 16.8403 24.9455L12.8 12.7999L17.0728 24.8657Z" fill="#00FFAE"/>
<path d="M16.8616 24.9385C16.7839 24.9644 16.7059 24.9897 16.6278 25.0142L12.8 12.7999L16.8616 24.9385Z" fill="#00FFB3"/>
<path d="M16.6491 25.0075C16.571 25.0321 16.4926 25.056 16.414 25.0791L12.8 12.7999L16.6491 25.0075Z" fill="#00FFB7"/>
<path d="M16.4354 25.0728C16.3569 25.0961 16.2781 25.1186 16.1992 25.1403L12.8 12.7999L16.4354 25.0728Z" fill="#00FFBB"/>
<path d="M16.2207 25.1344C16.1417 25.1563 16.0626 25.1774 15.9833 25.1978L12.8 12.7999L16.2207 25.1344Z" fill="#00FFBF"/>
<path d="M16.0049 25.1922C15.9256 25.2127 15.8461 25.2324 15.7664 25.2514L12.8 12.7999L16.0049 25.1922Z" fill="#00FFC4"/>
<path d="M15.7882 25.2462C15.7085 25.2654 15.6287 25.2837 15.5487 25.3014L12.8 12.7999L15.7882 25.2462Z" fill="#00FFC8"/>
<path d="M15.5705 25.2965C15.4905 25.3142 15.4103 25.3311 15.3301 25.3474L12.8 12.7999L15.5705 25.2965Z" fill="#00FFCC"/>
<path d="M15.352 25.3429C15.2717 25.3591 15.1913 25.3747 15.1107 25.3896L12.8 12.7999L15.352 25.3429Z" fill="#00FFD0"/>
<path d="M15.1327 25.3854C15.0521 25.4006 14.9714 25.4145 14.8906 25.428L12.8 12.7999L15.1327 25.3854Z" fill="#00FFD5"/>
<path d="M14.9127 25.4245C14.8319 25.438 14.7509 25.4505 14.6699 25.4626L12.8 12.7999L14.9127 25.4245Z" fill="#00FFD9"/>
<path d="M14.692 25.4595C14.611 25.4716 14.5299 25.4826 14.4486 25.4934L12.8 12.7999L14.692 25.4595Z" fill="#00FFDD"/>
<path d="M14.4708 25.4902C14.3896 25.501 14.3083 25.511 14.2268 25.52L12.8 12.7999L14.4708 25.4902Z" fill="#00FFE1"/>
<path d="M14.249 25.5176C14.1677 25.5269 14.0862 25.5356 14.0046 25.5432L12.8 12.7999L14.249 25.5176Z" fill="#00FFE6"/>
<path d="M14.0269 25.5411C13.9453 25.5487 13.8637 25.556 13.782 25.5622L12.8 12.7999L14.0269 25.5411Z" fill="#00FFEA"/>
<path d="M13.8043 25.5605C13.7227 25.567 13.6409 25.5726 13.5592 25.5774L12.8 12.7999L13.8043 25.5605Z" fill="#00FFEE"/>
<path d="M13.5815 25.576C13.4997 25.5809 13.4179 25.5854 13.3361 25.5888L12.8 12.7999L13.5815 25.576Z" fill="#00FFF2"/>
<path d="M13.3584 25.5878C13.2766 25.5913 13.1947 25.594 13.1128 25.5961L12.8 12.7999L13.3584 25.5878Z" fill="#00FFF7"/>
<path d="M13.1351 25.5954C13.0532 25.5978 12.9713 25.5989 12.8894 25.5996L12.8 12.7999L13.1351 25.5954Z" fill="#00FFFB"/>
<path d="M12.9117 25.5995C12.8298 25.6002 12.7479 25.5999 12.666 25.5992L12.8 12.7999L12.9117 25.5995Z" fill="#00FFFF"/>
<path d="M12.6883 25.5996C12.6064 25.5989 12.5245 25.5971 12.4426 25.5951L12.8 12.7999L12.6883 25.5996Z" fill="#00FBFF"/>
<path d="M12.4649 25.5954C12.3831 25.5933 12.3012 25.5906 12.2194 25.5868L12.8 12.7999L12.4649 25.5954Z" fill="#00F7FF"/>
<path d="M12.2417 25.5878C12.1599 25.584 12.0781 25.5798 11.9963 25.5747L12.8 12.7999L12.2417 25.5878Z" fill="#00F2FF"/>
<path d="M12.0185 25.576C11.9368 25.5712 11.8551 25.5653 11.7734 25.5587L12.8 12.7999L12.0185 25.576Z" fill="#00EEFF"/>
<path d="M11.7957 25.5605C11.714 25.5539 11.6324 25.547 11.5509 25.5387L12.8 12.7999L11.7957 25.5605Z" fill="#00EAFF"/>
<path d="M11.5732 25.5411C11.4917 25.5331 11.4102 25.5245 11.3289 25.5151L12.8001 12.7999L11.5732 25.5411Z" fill="#00E6FF"/>
<path d="M11.3511 25.5176C11.2697 25.5082 11.1884 25.4982 11.1072 25.4875L12.8001 12.7999L11.3511 25.5176Z" fill="#00E1FF"/>
<path d="M11.1293 25.4902C11.0481 25.4799 10.967 25.4681 10.886 25.456L12.8 12.7999L11.1293 25.4902Z" fill="#00DDFF"/>
<path d="M10.908 25.4595C10.8269 25.4473 10.7461 25.4342 10.6653 25.4207L12.7999 12.7999L10.908 25.4595Z" fill="#00D9FF"/>
<path d="M10.6874 25.4245C10.6066 25.411 10.526 25.3965 10.4454 25.3816L12.8 12.7999L10.6874 25.4245Z" fill="#00D5FF"/>
<path d="M10.4674 25.3854C10.3869 25.3705 10.3065 25.355 10.2262 25.3384L12.8 12.7999L10.4674 25.3854Z" fill="#00D0FF"/>
<path d="M10.248 25.3429C10.1678 25.3266 10.0876 25.3097 10.0077 25.2917L12.7999 12.7999L10.248 25.3429Z" fill="#00CCFF"/>
<path d="M10.0296 25.2965C9.94961 25.2789 9.8698 25.2602 9.79016 25.241L12.8 12.7999L10.0296 25.2965Z" fill="#00C8FF"/>
<path d="M9.81188 25.2462C9.73224 25.2271 9.65278 25.2072 9.57349 25.1866L12.8 12.7999L9.81188 25.2462Z" fill="#00C4FF"/>
<path d="M9.59511 25.1922C9.51578 25.1717 9.43666 25.1504 9.35779 25.1284L12.7999 12.7999L9.59511 25.1922Z" fill="#00BFFF"/>
<path d="M9.37937 25.1344C9.30042 25.1125 9.22172 25.0898 9.14319 25.0664L12.8 12.7999L9.37937 25.1344Z" fill="#00BBFF"/>
<path d="M9.16462 25.0728C9.08609 25.0495 9.00777 25.0255 8.92969 25.0008L12.8 12.7999L9.16462 25.0728Z" fill="#00B7FF"/>
<path d="M8.95094 25.0075C8.87282 24.9828 8.79492 24.9574 8.71729 24.9313L12.8 12.7999L8.95094 25.0075Z" fill="#00B3FF"/>
<path d="M8.73853 24.9385C8.66083 24.9124 8.58341 24.8857 8.50623 24.8582L12.8 12.7999L8.73853 24.9385Z" fill="#00AEFF"/>
<path d="M8.52724 24.8657C8.45002 24.8384 8.37305 24.8103 8.29639 24.7815L12.7999 12.7999L8.52724 24.8657Z" fill="#00AAFF"/>
<path d="M8.31738 24.7893C8.24064 24.7606 8.16419 24.7312 8.08801 24.701L12.8 12.7999L8.31738 24.7893Z" fill="#00A6FF"/>
<path d="M8.10887 24.7092C8.03266 24.6792 7.95673 24.6485 7.8811 24.617L12.8001 12.7999L8.10887 24.7092Z" fill="#00A2FF"/>
<path d="M7.90165 24.6256C7.82599 24.5942 7.75061 24.5621 7.67554 24.5293L12.8 12.7999L7.90165 24.6256Z" fill="#009DFF"/>
<path d="M7.69597 24.5383C7.62087 24.5056 7.54604 24.4722 7.47156 24.4381L12.7999 12.7999L7.69597 24.5383Z" fill="#0099FF"/>
<path d="M7.49194 24.4474C7.41739 24.4135 7.34318 24.3788 7.26929 24.3434L12.8 12.7999L7.49194 24.4474Z" fill="#0095FF"/>
<path d="M7.28939 24.353C7.21546 24.3177 7.14184 24.2818 7.0686 24.2451L12.7999 12.7999L7.28939 24.353Z" fill="#0091FF"/>
<path d="M7.08872 24.2551C7.01541 24.2185 6.94245 24.1813 6.86987 24.1433L12.8 12.7999L7.08872 24.2551Z" fill="#008CFF"/>
<path d="M6.8896 24.1536C6.81695 24.1158 6.74465 24.0773 6.67273 24.0381L12.8 12.7999L6.8896 24.1536Z" fill="#0088FF"/>
<path d="M6.69234 24.0488C6.62035 24.0097 6.54873 23.9699 6.47754 23.9294L12.8 12.7999L6.69234 24.0488Z" fill="#0084FF"/>
<path d="M6.49699 23.9405C6.42569 23.9001 6.35481 23.8591 6.2843 23.8174L12.8 12.7999L6.49699 23.9405Z" fill="#0080FF"/>
<path d="M6.30356 23.8288C6.23299 23.7872 6.16279 23.7449 6.09302 23.702L12.8 12.7999L6.30356 23.8288Z" fill="#007BFF"/>
<path d="M6.11198 23.7137C6.04213 23.6709 5.9727 23.6274 5.90369 23.5833L12.7999 12.7999L6.11198 23.7137Z" fill="#0077FF"/>
<path d="M5.92253 23.5953C5.85344 23.5513 5.78477 23.5066 5.71655 23.4613L12.8 12.7999L5.92253 23.5953Z" fill="#0072FF"/>
<path d="M5.73524 23.4737C5.66692 23.4284 5.59904 23.3826 5.53162 23.3361L12.8 12.7999L5.73524 23.4737Z" fill="#006FFF"/>
<path d="M5.55004 23.3487C5.48252 23.3023 5.41547 23.2553 5.34888 23.2076L12.8 12.7999L5.55004 23.3487Z" fill="#006AFF"/>
<path d="M5.36701 23.2206C5.30031 23.173 5.2341 23.1248 5.16833 23.076L12.8 12.7999L5.36701 23.2206Z" fill="#0066FF"/>
<path d="M5.18623 23.0893C5.12036 23.0406 5.05501 22.9912 4.99011 22.9412L12.7999 12.7999L5.18623 23.0893Z" fill="#0062FF"/>
<path d="M5.00782 22.9548C4.94285 22.905 4.87833 22.8545 4.81433 22.8034L12.8 12.7999L5.00782 22.9548Z" fill="#005EFF"/>
<path d="M4.83185 22.8173C4.76771 22.7663 4.70413 22.7147 4.64099 22.6625L12.8 12.7999L4.83185 22.8173Z" fill="#0059FF"/>
<path d="M4.65818 22.6767C4.59498 22.6246 4.53226 22.5719 4.47009 22.5186L12.8 12.7999L4.65818 22.6767Z" fill="#0055FF"/>
<path d="M4.48705 22.5331C4.42478 22.4799 4.36299 22.4261 4.30176 22.3717L12.8 12.7999L4.48705 22.5331Z" fill="#0051FF"/>
<path d="M4.31847 22.3866C4.2571 22.3323 4.19628 22.2774 4.13599 22.222L12.8 12.7999L4.31847 22.3866Z" fill="#004DFF"/>
<path d="M4.15248 22.2371C4.09208 22.1817 4.0322 22.1258 3.9729 22.0693L12.8 12.7999L4.15248 22.2371Z" fill="#0048FF"/>
<path d="M3.98914 22.0847C3.92971 22.0283 3.87083 21.9714 3.8125 21.9139L12.8001 12.7999L3.98914 22.0847Z" fill="#0044FF"/>
<path d="M3.82842 21.9295C3.76998 21.8721 3.71211 21.8141 3.65479 21.7556L12.8 12.7999L3.82842 21.9295Z" fill="#0040FF"/>
<path d="M3.67031 21.7716C3.61291 21.7131 3.55604 21.6542 3.49976 21.5946L12.7999 12.7999L3.67031 21.7716Z" fill="#003CFF"/>
<path d="M3.51534 21.6108C3.45895 21.5514 3.40311 21.4915 3.3479 21.431L12.8001 12.7999L3.51534 21.6108Z" fill="#0037FF"/>
<path d="M3.3629 21.4475C3.30755 21.3871 3.25278 21.3262 3.19861 21.2647L12.8 12.7999L3.3629 21.4475Z" fill="#0033FF"/>
<path d="M3.21341 21.2814C3.15913 21.2201 3.10547 21.1582 3.05237 21.0958L12.8 12.7999L3.21341 21.2814Z" fill="#002FFF"/>
<path d="M3.06672 21.1129C3.01351 21.0506 2.96093 20.9878 2.90894 20.9245L12.7999 12.7999L3.06672 21.1129Z" fill="#002BFF"/>
<path d="M2.92326 20.9417C2.87116 20.8785 2.81965 20.8148 2.7688 20.7506L12.8 12.7999L2.92326 20.9417Z" fill="#0026FF"/>
<path d="M2.78258 20.7681C2.73159 20.704 2.68122 20.6394 2.63147 20.5743L12.7999 12.7999L2.78258 20.7681Z" fill="#0022FF"/>
<path d="M2.64503 20.5921C2.59518 20.5271 2.54592 20.4616 2.49731 20.3957L12.7999 12.7999L2.64503 20.5921Z" fill="#001EFF"/>
<path d="M2.51071 20.4137C2.46201 20.3478 2.41388 20.2815 2.36646 20.2147L12.8001 12.7999L2.51071 20.4137Z" fill="#001AFF"/>
<path d="M2.37929 20.2329C2.33172 20.1662 2.28481 20.0991 2.23853 20.0315L12.8 12.7999L2.37929 20.2329Z" fill="#0015FF"/>
<path d="M2.25125 20.0499C2.20486 19.9824 2.15912 19.9145 2.11401 19.8461L12.8001 12.7999L2.25125 20.0499Z" fill="#0011FF"/>
<path d="M2.12619 19.8647C2.08101 19.7964 2.03645 19.7277 1.99255 19.6585L12.7999 12.7999L2.12619 19.8647Z" fill="#000DFF"/>
<path d="M2.00455 19.6774C1.96055 19.6083 1.9172 19.5388 1.87451 19.4689L12.8 12.7999L2.00455 19.6774Z" fill="#0009FF"/>
<path d="M1.88626 19.4879C1.84347 19.4181 1.80133 19.3478 1.75989 19.2771L12.8 12.7999L1.88626 19.4879Z" fill="#0004FF"/>
<path d="M1.77111 19.2964C1.72956 19.2258 1.68864 19.1548 1.64844 19.0835L12.8 12.7999L1.77111 19.2964Z" fill="#0000FF"/>
<path d="M1.65946 19.1029C1.61913 19.0316 1.57948 18.96 1.54053 18.8879L12.8 12.7999L1.65946 19.1029Z" fill="#0400FF"/>
<path d="M1.55111 18.9076C1.51202 18.8356 1.47362 18.7632 1.43591 18.6905L12.7999 12.7999L1.55111 18.9076Z" fill="#0900FF"/>
<path d="M1.44632 18.7103C1.40851 18.6377 1.37139 18.5646 1.33496 18.4912L12.8 12.7999L1.44632 18.7103Z" fill="#0D00FF"/>
<path d="M1.34482 18.5112C1.30829 18.4379 1.27245 18.3643 1.2373 18.2903L12.8 12.7999L1.34482 18.5112Z" fill="#1100FF"/>
<path d="M1.24699 18.3105C1.2117 18.2365 1.17714 18.1623 1.14331 18.0877L12.8 12.7999L1.24699 18.3105Z" fill="#1500FF"/>
<path d="M1.15247 18.108C1.11853 18.0335 1.08525 17.9586 1.05273 17.8834L12.8 12.7999L1.15247 18.108Z" fill="#1A00FF"/>
<path d="M1.06165 17.9039C1.02899 17.8288 0.997025 17.7533 0.96582 17.6776L12.8 12.7999L1.06165 17.9039Z" fill="#1E00FF"/>
<path d="M0.974329 17.6983C0.942952 17.6226 0.912336 17.5466 0.882446 17.4703L12.8 12.7999L0.974329 17.6983Z" fill="#2200FF"/>
<path d="M0.890726 17.4911C0.860698 17.4149 0.831397 17.3384 0.802856 17.2617L12.8 12.7999L0.890726 17.4911Z" fill="#2600FF"/>
<path d="M0.810629 17.2826C0.78195 17.2059 0.753998 17.1288 0.726807 17.0516L12.8 12.7999L0.810629 17.2826Z" fill="#2B00FF"/>
<path d="M0.734228 17.0727C0.706864 16.9954 0.680261 16.918 0.654419 16.8402L12.8 12.7999L0.734228 17.0727Z" fill="#2F00FF"/>
<path d="M0.661421 16.8614C0.635441 16.7837 0.610186 16.7058 0.585693 16.6276L12.8 12.7999L0.661421 16.8614Z" fill="#3300FF"/>
<path d="M0.592397 16.6489C0.567766 16.5708 0.543896 16.4925 0.520752 16.4139L12.7999 12.7999L0.592397 16.6489Z" fill="#3700FF"/>
<path d="M0.527123 16.4353C0.503841 16.3568 0.481355 16.278 0.459595 16.199L12.8 12.7999L0.527123 16.4353Z" fill="#3C00FF"/>
<path d="M0.465511 16.2206C0.443613 16.1416 0.422476 16.0625 0.4021 15.9831L12.8 12.7999L0.465511 16.2206Z" fill="#4000FF"/>
<path d="M0.407614 16.0048C0.387134 15.9255 0.367381 15.846 0.348389 15.7663L12.7999 12.7999L0.407614 16.0048Z" fill="#4400FF"/>
<path d="M0.353659 15.788C0.334528 15.7084 0.316193 15.6285 0.298584 15.5485L12.8 12.7999L0.353659 15.788Z" fill="#4800FF"/>
<path d="M0.303452 15.5704C0.285705 15.4904 0.268754 15.4102 0.252563 15.3299L12.8 12.7999L0.303452 15.5704Z" fill="#4D00FF"/>
<path d="M0.256908 15.3518C0.240579 15.2716 0.225012 15.1911 0.210205 15.1106L12.7999 12.7999L0.256908 15.3518Z" fill="#5100FF"/>
<path d="M0.214357 15.1325C0.199413 15.052 0.185263 14.9713 0.171875 14.8905L12.8 12.7999L0.214357 15.1325Z" fill="#5500FF"/>
<path d="M0.17559 14.9125C0.162064 14.8317 0.149299 14.7508 0.137329 14.6698L12.8 12.7999L0.17559 14.9125Z" fill="#5900FF"/>
<path d="M0.140661 14.6919C0.128553 14.6109 0.117241 14.5297 0.106689 14.4485L12.8 12.7999L0.140661 14.6919Z" fill="#5E00FF"/>
<path d="M0.10955 14.4707C0.0988608 14.3894 0.0889669 14.3081 0.079834 14.2267L12.8 12.7999L0.10955 14.4707Z" fill="#6200FF"/>
<path d="M0.0823466 14.2489C0.0730753 14.1676 0.0645993 14.086 0.0568848 14.0045L12.8001 12.7999L0.0823466 14.2489Z" fill="#6600FF"/>
<path d="M0.0589263 14.0268C0.0510733 13.9452 0.0439813 13.8636 0.0377197 13.7819L12.8 12.7999L0.0589263 14.0268Z" fill="#6A00FF"/>
<path d="M0.0395343 13.8042C0.0330997 13.7225 0.0274608 13.6408 0.022583 13.559L12.8 12.7999L0.0395343 13.8042Z" fill="#6F00FF"/>
<path d="M0.0239799 13.5813C0.0189983 13.4996 0.0147774 13.4178 0.0113525 13.3359L12.8001 12.7999L0.0239799 13.5813Z" fill="#7300FF"/>
<path d="M0.0121562 13.3582C0.00859297 13.2764 0.00579066 13.1945 0.00378418 13.1127L12.8 12.7999L0.0121562 13.3582Z" fill="#7700FF"/>
<path d="M0.00444797 13.135C0.00230311 13.0531 0.000954318 12.9712 0.000366211 12.8893L12.8 12.7999L0.00444797 13.135Z" fill="#7B00FF"/>
<path d="M0.000497362 12.9117C-0.000229123 12.8297 -0.000159652 12.7478 0.000705211 12.6659L12.8 12.7999L0.000497362 12.9117Z" fill="#8000FF"/>
<path d="M0.000488281 12.6882C0.00121477 12.6063 0.0027025 12.5244 0.00498574 12.4425L12.8 12.7999L0.000488281 12.6882Z" fill="#8400FF"/>
<path d="M0.00439453 12.4649C0.00653939 12.383 0.00947998 12.3011 0.0131816 12.2193L12.8 12.7999L0.00439453 12.4649Z" fill="#8800FF"/>
<path d="M0.012207 12.2416C0.0157703 12.1598 0.0201291 12.078 0.0252837 11.9962L12.8 12.8L0.012207 12.2416Z" fill="#8C00FF"/>
<path d="M0.0239258 12.0185C0.028942 11.9368 0.0347191 11.8551 0.0412921 11.7734L12.8 12.7999L0.0239258 12.0185Z" fill="#9100FF"/>
<path d="M0.0394287 11.7957C0.0458633 11.714 0.053059 11.6324 0.0610503 11.5509L12.7999 12.8L0.0394287 11.7957Z" fill="#9500FF"/>
<path d="M0.0588379 11.5731C0.0666908 11.4916 0.0753394 11.4101 0.0847491 11.3287L12.7999 12.7999L0.0588379 11.5731Z" fill="#9900FF"/>
<path d="M0.0822754 11.3509C0.0915467 11.2695 0.101579 11.1882 0.112408 11.1071L12.8 12.7999L0.0822754 11.3509Z" fill="#9D00FF"/>
<path d="M0.109619 11.1292C0.120309 11.048 0.131759 10.9669 0.144006 10.8859L12.8001 12.7999L0.109619 11.1292Z" fill="#A200FF"/>
<path d="M0.140625 10.908C0.152733 10.827 0.165637 10.7461 0.179301 10.6653L12.8 12.8L0.140625 10.908Z" fill="#A600FF"/>
<path d="M0.175537 10.6873C0.189064 10.6065 0.203351 10.5259 0.218434 10.4454L12.8 12.7999L0.175537 10.6873Z" fill="#AA00FF"/>
<path d="M0.214355 10.4673C0.229266 10.3868 0.244971 10.3064 0.261438 10.2261L12.8 12.7999L0.214355 10.4673Z" fill="#AE00FF"/>
<path d="M0.256958 10.248C0.273287 10.1677 0.290376 10.0876 0.308262 10.0077L12.8 12.7999L0.256958 10.248Z" fill="#B300FF"/>
<path d="M0.303467 10.0295C0.321214 9.94955 0.339721 9.86974 0.358956 9.7901L12.8001 12.7999L0.303467 10.0295Z" fill="#B700FF"/>
<path d="M0.35376 9.81182C0.372891 9.73218 0.392782 9.65272 0.413435 9.57343L12.8001 12.7999L0.35376 9.81182Z" fill="#BB00FF"/>
<path d="M0.407715 9.59507C0.428195 9.51578 0.449471 9.43666 0.471507 9.35779L12.8 12.7999L0.407715 9.59507Z" fill="#BF00FF"/>
<path d="M0.465576 9.3793C0.487475 9.30036 0.5101 9.22162 0.53352 9.14313L12.8 12.7999L0.465576 9.3793Z" fill="#C400FF"/>
<path d="M0.5271 9.1645C0.550347 9.08597 0.57439 9.00765 0.59916 8.92957L12.8 12.7999L0.5271 9.1645Z" fill="#C800FF"/>
<path d="M0.592407 8.95094C0.617039 8.87279 0.642431 8.79492 0.66855 8.71729L12.8 12.8L0.592407 8.95094Z" fill="#CC00FF"/>
<path d="M0.661377 8.73843C0.687392 8.66077 0.714133 8.58334 0.741601 8.50616L12.7999 12.7999L0.661377 8.73843Z" fill="#D000FF"/>
<path d="M0.734131 8.5272C0.761461 8.44999 0.789552 8.37305 0.818369 8.29639L12.7999 12.7999L0.734131 8.5272Z" fill="#D500FF"/>
<path d="M0.810547 8.31734C0.83926 8.24061 0.868666 8.16419 0.898833 8.08801L12.7999 12.8L0.810547 8.31734Z" fill="#D900FF"/>
<path d="M0.890625 8.10875C0.920618 8.0325 0.951373 7.95661 0.982854 7.88098L12.7999 12.7999L0.890625 8.10875Z" fill="#DD00FF"/>
<path d="M0.974365 7.90159C1.00571 7.82589 1.03778 7.75055 1.07057 7.67548L12.8 12.7999L0.974365 7.90159Z" fill="#E100FF"/>
<path d="M1.06165 7.69597C1.0943 7.62083 1.12769 7.54604 1.1618 7.47156L12.8 12.7999L1.06165 7.69597Z" fill="#E600FF"/>
<path d="M1.15259 7.49188C1.18653 7.41733 1.22122 7.34312 1.25661 7.26923L12.8 12.7999L1.15259 7.49188Z" fill="#EA00FF"/>
<path d="M1.24683 7.28945C1.28211 7.21548 1.31809 7.1419 1.35476 7.06866L12.7999 12.8L1.24683 7.28945Z" fill="#EE00FF"/>
<path d="M1.34497 7.08863C1.3815 7.01532 1.41876 6.94236 1.45671 6.86975L12.8001 12.7999L1.34497 7.08863Z" fill="#F200FF"/>
<path d="M1.44629 6.8896C1.4841 6.81695 1.52264 6.74465 1.56184 6.67273L12.8 12.8L1.44629 6.8896Z" fill="#F700FF"/>
<path d="M1.55115 6.69234C1.5902 6.62035 1.62999 6.54873 1.67046 6.47754L12.8 12.8L1.55115 6.69234Z" fill="#FB00FF"/>
<path d="M1.65942 6.49693C1.69976 6.42563 1.74079 6.35474 1.78248 6.28424L12.8 12.7999L1.65942 6.49693Z" fill="#FF00FF"/>
<path d="M1.77124 6.30344C1.81282 6.23287 1.85506 6.16267 1.89799 6.0929L12.8001 12.7999L1.77124 6.30344Z" fill="#FF00FB"/>
<path d="M1.88623 6.11195C1.92906 6.04213 1.97251 5.9727 2.01665 5.90369L12.8 12.7999L1.88623 6.11195Z" fill="#FF00F7"/>
<path d="M2.00464 5.92253C2.04864 5.85344 2.09334 5.78477 2.13866 5.71655L12.8 12.8L2.00464 5.92253Z" fill="#FF00F2"/>
<path d="M2.12622 5.73514C2.17144 5.66685 2.21731 5.59898 2.26384 5.53156L12.7999 12.7999L2.12622 5.73514Z" fill="#FF00EE"/>
<path d="M2.25122 5.54996C2.29761 5.48243 2.34466 5.41538 2.39237 5.34875L12.8 12.7999L2.25122 5.54996Z" fill="#FF00EA"/>
<path d="M2.37927 5.36695C2.42684 5.30025 2.47506 5.23404 2.52391 5.16827L12.7999 12.7999L2.37927 5.36695Z" fill="#FF00E6"/>
<path d="M2.51062 5.18626C2.55933 5.1204 2.60869 5.05501 2.65868 4.99011L12.8 12.8L2.51062 5.18626Z" fill="#FF00E1"/>
<path d="M2.64514 5.00782C2.69503 4.94285 2.7455 4.87833 2.79663 4.81433L12.8001 12.8L2.64514 5.00782Z" fill="#FF00DD"/>
<path d="M2.78259 4.83179C2.83359 4.76765 2.8852 4.70407 2.9374 4.64093L12.8 12.7999L2.78259 4.83179Z" fill="#FF00D9"/>
<path d="M2.92322 4.65818C2.97532 4.59498 3.02804 4.53226 3.08135 4.47009L12.8 12.8L2.92322 4.65818Z" fill="#FF00D5"/>
<path d="M3.06677 4.48702C3.11998 4.42475 3.17377 4.36296 3.22816 4.3017L12.7999 12.7999L3.06677 4.48702Z" fill="#FF00D0"/>
<path d="M3.21338 4.31841C3.26766 4.25704 3.32252 4.19622 3.37798 4.13593L12.8 12.7999L3.21338 4.31841Z" fill="#FF00CC"/>
<path d="M3.36292 4.15242C3.41823 4.09202 3.47417 4.03213 3.53066 3.97284L12.8 12.7999L3.36292 4.15242Z" fill="#FF00C8"/>
<path d="M3.51526 3.98902C3.57165 3.92958 3.62859 3.8707 3.68612 3.81238L12.8 12.7999L3.51526 3.98902Z" fill="#FF00C4"/>
<path d="M3.67041 3.82826C3.72784 3.76986 3.78582 3.71199 3.84435 3.65466L12.8 12.7999L3.67041 3.82826Z" fill="#FF00BF"/>
<path d="M3.82837 3.67037C3.8868 3.61298 3.94575 3.5561 4.00529 3.49982L12.8 12.8L3.82837 3.67037Z" fill="#FF00BB"/>
<path d="M3.98901 3.51515C4.04841 3.45876 4.1084 3.40296 4.16887 3.34772L12.7999 12.7999L3.98901 3.51515Z" fill="#FF00B7"/>
<path d="M4.15259 3.3628C4.21299 3.30749 4.27391 3.25272 4.33535 3.19855L12.8001 12.7999L4.15259 3.3628Z" fill="#FF00B3"/>
<path d="M4.3186 3.21328C4.37994 3.159 4.44179 3.10531 4.5042 3.05225L12.8001 12.7999L4.3186 3.21328Z" fill="#FF00AE"/>
<path d="M4.48706 3.06678C4.54937 3.01358 4.61215 2.96099 4.67546 2.909L12.8 12.8L4.48706 3.06678Z" fill="#FF00AA"/>
<path d="M4.6582 2.92318C4.72141 2.87108 4.78513 2.81957 4.8493 2.76868L12.8 12.8L4.6582 2.92318Z" fill="#FF00A6"/>
<path d="M4.83179 2.78258C4.89589 2.73159 4.96048 2.68122 5.02555 2.63147L12.7999 12.7999L4.83179 2.78258Z" fill="#FF00A2"/>
<path d="M5.00781 2.64503C5.07282 2.59518 5.13827 2.54592 5.20421 2.49731L12.8 12.7999L5.00781 2.64503Z" fill="#FF009D"/>
<path d="M5.18628 2.51059C5.25215 2.46188 5.31846 2.41376 5.38523 2.36633L12.8 12.7999L5.18628 2.51059Z" fill="#FF0099"/>
<path d="M5.36694 2.37929C5.43364 2.33172 5.50079 2.28481 5.56835 2.23853L12.7999 12.8L5.36694 2.37929Z" fill="#FF0095"/>
<path d="M5.55005 2.25113C5.61754 2.20474 5.68549 2.159 5.75388 2.11389L12.8 12.7999L5.55005 2.25113Z" fill="#FF0091"/>
<path d="M5.73523 2.12619C5.80355 2.08098 5.87229 2.03642 5.94145 1.99255L12.8 12.7999L5.73523 2.12619Z" fill="#FF008C"/>
<path d="M5.92261 2.00455C5.99169 1.96055 6.06123 1.9172 6.13114 1.87451L12.8 12.8L5.92261 2.00455Z" fill="#FF0088"/>
<path d="M6.11206 1.8862C6.18191 1.84341 6.25213 1.80127 6.32281 1.75983L12.8 12.8L6.11206 1.8862Z" fill="#FF0084"/>
<path d="M6.30347 1.77111C6.37404 1.72953 6.44503 1.68864 6.5164 1.64844L12.7999 12.8L6.30347 1.77111Z" fill="#FF0080"/>
<path d="M6.49695 1.6594C6.56825 1.61907 6.63993 1.57942 6.71199 1.54047L12.8 12.8L6.49695 1.6594Z" fill="#FF007B"/>
<path d="M6.69226 1.55111C6.76425 1.51202 6.83662 1.47362 6.90934 1.43591L12.7999 12.7999L6.69226 1.55111Z" fill="#FF0077"/>
<path d="M6.88953 1.4462C6.96217 1.40839 7.0352 1.37123 7.10858 1.33484L12.7999 12.7999L6.88953 1.4462Z" fill="#FF0073"/>
<path d="M7.08862 1.34476C7.16193 1.30823 7.23558 1.27236 7.30958 1.23724L12.7999 12.7999L7.08862 1.34476Z" fill="#FF006F"/>
<path d="M7.28943 1.24683C7.36336 1.21158 7.43763 1.17702 7.51225 1.14319L12.8 12.7999L7.28943 1.24683Z" fill="#FF006A"/>
<path d="M7.49194 1.15247C7.56649 1.1185 7.64136 1.08525 7.71653 1.05273L12.8 12.8L7.49194 1.15247Z" fill="#FF0066"/>
<path d="M7.69604 1.06159C7.77118 1.02893 7.8466 0.996964 7.92233 0.965759L12.8 12.7999L7.69604 1.06159Z" fill="#FF0062"/>
<path d="M7.90161 0.974329C7.9773 0.942952 8.05327 0.912336 8.12956 0.882446L12.8 12.8L7.90161 0.974329Z" fill="#FF005E"/>
<path d="M8.10876 0.89063C8.18498 0.860637 8.26146 0.831336 8.33823 0.802795L12.8 12.8L8.10876 0.89063Z" fill="#FF0059"/>
<path d="M8.31726 0.810507C8.39399 0.781828 8.471 0.753876 8.54825 0.726685L12.7999 12.7999L8.31726 0.810507Z" fill="#FF0055"/>
<path d="M8.52722 0.734167C8.60444 0.706803 8.68193 0.6802 8.75966 0.654358L12.8 12.7999L8.52722 0.734167Z" fill="#FF0051"/>
<path d="M8.73853 0.661421C8.81622 0.635441 8.89413 0.610186 8.97232 0.585693L12.8 12.8L8.73853 0.661421Z" fill="#FF004D"/>
<path d="M8.95093 0.592397C9.02904 0.567766 9.1074 0.543861 9.186 0.520752L12.7999 12.7999L8.95093 0.592397Z" fill="#FF0048"/>
<path d="M9.16467 0.527123C9.2432 0.503841 9.32197 0.48132 9.40092 0.459595L12.8 12.8L9.16467 0.527123Z" fill="#FF0044"/>
<path d="M9.37927 0.465511C9.45822 0.443613 9.53733 0.422476 9.61669 0.4021L12.7999 12.8L9.37927 0.465511Z" fill="#FF0040"/>
<path d="M9.59521 0.407675C9.67451 0.387196 9.754 0.367442 9.83371 0.34845L12.8001 12.8L9.59521 0.407675Z" fill="#FF003C"/>
<path d="M9.81189 0.353659C9.89156 0.334528 9.97137 0.316193 10.0514 0.298584L12.8 12.8L9.81189 0.353659Z" fill="#FF0037"/>
<path d="M10.0295 0.303357C10.1095 0.285644 10.1897 0.268693 10.27 0.252502L12.8 12.7999L10.0295 0.303357Z" fill="#FF0033"/>
<path d="M10.248 0.256908C10.3283 0.240579 10.4087 0.225012 10.4893 0.210205L12.7999 12.7999L10.248 0.256908Z" fill="#FF002F"/>
<path d="M10.4674 0.214296C10.5479 0.199352 10.6286 0.185202 10.7094 0.171814L12.8 12.7999L10.4674 0.214296Z" fill="#FF002B"/>
<path d="M10.6874 0.175495C10.7682 0.161969 10.8491 0.149238 10.9301 0.137268L12.8 12.7999L10.6874 0.175495Z" fill="#FF0026"/>
<path d="M10.908 0.140539C10.989 0.128431 11.0701 0.117119 11.1513 0.106567L12.7999 12.7999L10.908 0.140539Z" fill="#FF0022"/>
<path d="M11.1292 0.109428C11.2104 0.0987387 11.2917 0.0888449 11.3731 0.0797119L12.7999 12.7999L11.1292 0.109428Z" fill="#FF001E"/>
<path d="M11.351 0.0822245C11.4324 0.0729532 11.5138 0.0644773 11.5954 0.0567627L12.7999 12.7999L11.351 0.0822245Z" fill="#FF001A"/>
<path d="M11.5731 0.0588652C11.6547 0.0510123 11.7363 0.0439549 11.8179 0.0376587L12.7999 12.7999L11.5731 0.0588652Z" fill="#FF0015"/>
<path d="M11.7957 0.0394122C11.8773 0.0329776 11.959 0.0273388 12.0408 0.0224609L12.7999 12.7999L11.7957 0.0394122Z" fill="#FF0011"/>
<path d="M12.0186 0.0237968C12.1003 0.0188151 12.1821 0.0145943 12.264 0.0111694L12.8 12.7999L12.0186 0.0237968Z" fill="#FF000D"/>
<path d="M12.2417 0.0121562C12.3235 0.00859297 12.4054 0.00579066 12.4873 0.00378418L12.8 12.8L12.2417 0.0121562Z" fill="#FF0009"/>
<path d="M12.465 0.0043259C12.5469 0.00218104 12.6287 0.000832248 12.7107 0.000244141L12.8 12.7999L12.465 0.0043259Z" fill="#FF0004"/>
</svg>
