<svg xmlns="http://www.w3.org/2000/svg" xmlns:svg="http://www.w3.org/2000/svg" id="svg20" width="197" height="151" fill="none" version="1.1" viewBox="0 0 197 151"><path style="color:#000;fill:#2d2d2d;-inkscape-stroke:none" id="rect2" d="M 79,0 C 72.39525,0 67,5.3952497 67,12 v 57 c 0,6.60475 5.39525,12 12,12 h 106 c 6.60475,0 12,-5.39525 12,-12 V 12 C 197,5.3952497 191.60475,0 185,0 Z m 0,5 h 106 c 3.92124,0 7,3.0787608 7,7 v 57 c 0,3.921239 -3.07876,7 -7,7 H 79 c -3.921239,0 -7,-3.078761 -7,-7 V 12 c 0,-3.9212392 3.078761,-7 7,-7 z"/><path style="color:#000;fill:#2d2d2d;fill-opacity:.25;stroke-width:5;-inkscape-stroke:none" id="path277" d="m 12,92.5 h 72 c 5.263,0 9.5,4.237 9.5,9.5 v 37 c 0,5.263 -4.237,9.5 -9.5,9.5 H 12 c -5.263,0 -9.5,-4.237 -9.5,-9.5 v -37 c 0,-5.263 4.237,-9.5 9.5,-9.5 z"/><path style="color:#000;fill:#2d2d2d;-inkscape-stroke:none" id="path279" d="M 12,90 C 5.3952497,90 0,95.39525 0,102 v 37 c 0,6.60475 5.3952497,12 12,12 h 72 c 6.60475,0 12,-5.39525 12,-12 V 102 C 96,95.39525 90.60475,90 84,90 Z m 0,5 h 72 c 3.921239,0 7,3.078761 7,7 v 37 c 0,3.92124 -3.078761,7 -7,7 H 12 c -3.9212392,0 -7,-3.07876 -7,-7 v -37 c 0,-3.921239 3.0787608,-7 7,-7 z"/><path id="path6" fill="#2D2D2D" d="M176.571 12C176.42 12 176.274 12.0602 176.167 12.1674C176.06 12.2746 176 12.4199 176 12.5714C176 12.723 176.06 12.8683 176.167 12.9755L179.192 16L176.167 19.0246C176.06 19.1318 176 19.2771 176 19.4287C176 19.5802 176.06 19.7255 176.167 19.8327C176.274 19.9398 176.42 20 176.571 20C176.723 20 176.868 19.9398 176.975 19.8327L180 16.8081L183.025 19.8327C183.132 19.9398 183.277 20 183.429 20C183.58 20 183.726 19.9398 183.833 19.8327C183.94 19.7255 184 19.5802 184 19.4287C184 19.2771 183.94 19.1318 183.833 19.0246L180.808 16L183.833 12.9755C183.94 12.8683 184 12.723 184 12.5714C184 12.4199 183.94 12.2746 183.833 12.1674C183.726 12.0603 183.58 12.0001 183.429 12.0001C183.277 12.0001 183.132 12.0603 183.025 12.1674L180 15.192L176.975 12.1674C176.868 12.0602 176.723 12 176.571 12Z"/><path id="path8" fill="#2D2D2D" fill-opacity=".25" d="M67 12C67 5.37258 72.3726 0 79 0H185C191.627 0 197 5.37258 197 12V27H67V12Z"/><path style="color:#000;fill:#2d2d2d;stroke-linecap:round;stroke-linejoin:round;-inkscape-stroke:none" id="path10" d="m 130.94727,35.041016 -14.5,11.5 a 2.5,2.5 0 0 0 -0.40625,3.511718 2.5,2.5 0 0 0 3.51171,0.40625 l 12.89063,-10.222656 11.93555,10.166016 a 2.5,2.5 0 0 0 3.52343,-0.28125 2.5,2.5 0 0 0 -0.28125,-3.523438 l -13.5,-11.5 a 2.50025,2.50025 0 0 0 -3.17382,-0.05664 z"/><path style="color:#000;fill:#2d2d2d;stroke-linecap:round;stroke-linejoin:round;-inkscape-stroke:none" id="path12" d="m 130.94727,48.541016 -14.5,11.5 a 2.5,2.5 0 0 0 -0.40625,3.511718 2.5,2.5 0 0 0 3.51171,0.40625 l 12.89063,-10.222656 11.93555,10.166016 a 2.5,2.5 0 0 0 3.52343,-0.28125 2.5,2.5 0 0 0 -0.28125,-3.523438 l -13.5,-11.5 a 2.50025,2.50025 0 0 0 -3.17382,-0.05664 z"/><path style="color:#000;fill:#2d2d2d;stroke-linecap:round;stroke-linejoin:round;-inkscape-stroke:none" id="path14" d="m 32.199219,131.22266 a 2.5,2.5 0 0 0 -1.820313,0.58789 l -6.15039,5.24023 -6.675782,-5.29492 a 2.5,2.5 0 0 0 -3.511718,0.4043 2.5,2.5 0 0 0 0.40625,3.51171 l 8.285156,6.57227 a 2.50025,2.50025 0 0 0 3.173828,-0.0547 l 7.714844,-6.57226 a 2.5,2.5 0 0 0 0.28125,-3.52539 2.5,2.5 0 0 0 -1.703125,-0.86914 z"/><path style="color:#000;fill:#2d2d2d;stroke-linecap:round;stroke-linejoin:round;-inkscape-stroke:none" id="path16" d="m 32.199219,121.50781 a 2.5,2.5 0 0 0 -1.820313,0.58985 l -6.15039,5.23828 -6.675782,-5.29492 a 2.5,2.5 0 0 0 -3.511718,0.40625 2.5,2.5 0 0 0 0.40625,3.51171 l 8.285156,6.57032 a 2.50025,2.50025 0 0 0 3.173828,-0.0547 l 7.714844,-6.57227 a 2.5,2.5 0 0 0 0.28125,-3.52343 2.5,2.5 0 0 0 -1.703125,-0.8711 z"/><path id="rect18" style="fill:#2d2d2d" d="m 24,99 c 6.094,0 11,4.906 11,11 0,6.094 -4.906,11 -11,11 -6.094,0 -11,-4.906 -11,-11 0,-6.094 4.906,-11 11,-11 z"/></svg>