<?xml version="1.0" encoding="UTF-8" standalone="no"?>
<svg
   width="197"
   height="151"
   viewBox="0 0 197 151"
   fill="none"
   version="1.1"
   id="svg20"
   sodipodi:docname="natural-scroll-symbolic.svg"
   inkscape:version="1.2.2 (b0a8486541, 2022-12-01)"
   xmlns:inkscape="http://www.inkscape.org/namespaces/inkscape"
   xmlns:sodipodi="http://sodipodi.sourceforge.net/DTD/sodipodi-0.dtd"
   xmlns="http://www.w3.org/2000/svg"
   xmlns:svg="http://www.w3.org/2000/svg">
  <defs
     id="defs24" />
  <sodipodi:namedview
     id="namedview22"
     pagecolor="#ffffff"
     bordercolor="#000000"
     borderopacity="0.25"
     inkscape:showpageshadow="2"
     inkscape:pageopacity="0.0"
     inkscape:pagecheckerboard="0"
     inkscape:deskcolor="#d1d1d1"
     showgrid="false"
     inkscape:zoom="4.9337748"
     inkscape:cx="91.208054"
     inkscape:cy="75.601342"
     inkscape:window-width="2560"
     inkscape:window-height="919"
     inkscape:window-x="0"
     inkscape:window-y="32"
     inkscape:window-maximized="1"
     inkscape:current-layer="svg20" />
  <path
     style="color:#000000;fill:#2d2d2d;fill-opacity:0.25;stroke-width:5;-inkscape-stroke:none"
     d="m 36,80.5 c 11.357,0 20.5,9.143 20.5,20.5 v 27 c 0,11.357 -9.143,20.5 -20.5,20.5 -11.357,0 -20.5,-9.143 -20.5,-20.5 V 101 C 15.5,89.643 24.643,80.5 36,80.5 Z"
     id="path323" />
  <path
     style="color:#000000;fill:#2d2d2d;-inkscape-stroke:none"
     d="M 36,78 C 23.301256,78 13,88.301256 13,101 v 27 c 0,12.69874 10.301256,23 23,23 12.698744,0 23,-10.30126 23,-23 V 101 C 59,88.301256 48.698744,78 36,78 Z m 0,5 c 10.015233,0 18,7.984767 18,18 v 27 c 0,10.01523 -7.984767,18 -18,18 -10.015233,0 -18,-7.98477 -18,-18 V 101 C 18,90.984767 25.984767,83 36,83 Z"
     id="path325" />
  <path
     style="color:#000000;fill:#2d2d2d;stroke-width:5;-inkscape-stroke:none"
     d="m 36,91.406769 c 2.544652,0 4.593234,2.048582 4.593234,4.593233 V 108 c 0,2.54465 -2.048582,4.59324 -4.593234,4.59324 -2.544651,0 -4.593233,-2.04859 -4.593233,-4.59324 V 96.000002 c 0,-2.544651 2.048582,-4.593233 4.593233,-4.593233 z"
     id="path309" />
  <path
     style="color:#000000;fill:#2d2d2d;-inkscape-stroke:none"
     d="m 36,88.90625 c -3.886404,0 -7.09375,3.207346 -7.09375,7.09375 v 12 c 0,3.8864 3.207346,7.09375 7.09375,7.09375 3.886404,0 7.09375,-3.20735 7.09375,-7.09375 V 96 c 0,-3.886404 -3.207346,-7.09375 -7.09375,-7.09375 z m 0,5 c 1.202893,0 2.09375,0.890857 2.09375,2.09375 v 12 c 0,1.20289 -0.890857,2.09375 -2.09375,2.09375 -1.202893,0 -2.09375,-0.89086 -2.09375,-2.09375 V 96 c 0,-1.202893 0.890857,-2.09375 2.09375,-2.09375 z"
     id="path311" />
  <path
     style="color:#000000;fill:#2d2d2d;stroke-linecap:round;stroke-linejoin:round;-inkscape-stroke:none"
     d="m 44.199219,127.22266 a 2.5,2.5 0 0 0 -1.820313,0.58789 l -6.15039,5.24023 -6.675782,-5.29492 a 2.5,2.5 0 0 0 -3.511718,0.4043 2.5,2.5 0 0 0 0.40625,3.51171 l 8.285156,6.57227 a 2.50025,2.50025 0 0 0 3.173828,-0.0547 l 7.714844,-6.57226 a 2.5,2.5 0 0 0 0.28125,-3.52539 2.5,2.5 0 0 0 -1.703125,-0.86914 z"
     id="path6" />
  <path
     style="color:#000000;fill:#2d2d2d;stroke-linecap:round;stroke-linejoin:round;-inkscape-stroke:none"
     d="m 44.199219,117.50781 a 2.5,2.5 0 0 0 -1.820313,0.58985 l -6.15039,5.23828 -6.675782,-5.29492 a 2.5,2.5 0 0 0 -3.511718,0.40625 2.5,2.5 0 0 0 0.40625,3.51171 l 8.285156,6.57032 a 2.50025,2.50025 0 0 0 3.173828,-0.0547 l 7.714844,-6.57227 a 2.5,2.5 0 0 0 0.28125,-3.52343 2.5,2.5 0 0 0 -1.703125,-0.8711 z"
     id="path8" />
  <path
     style="color:#000000;fill:#2d2d2d;-inkscape-stroke:none"
     d="M 79,0 C 72.39525,0 67,5.3952497 67,12 v 57 c 0,6.60475 5.39525,12 12,12 h 106 c 6.60475,0 12,-5.39525 12,-12 V 12 C 197,5.3952497 191.60475,0 185,0 Z m 0,5 h 106 c 3.92124,0 7,3.0787608 7,7 v 57 c 0,3.921239 -3.07876,7 -7,7 H 79 c -3.921239,0 -7,-3.078761 -7,-7 V 12 c 0,-3.9212392 3.078761,-7 7,-7 z"
     id="rect10" />
  <path
     d="M176.571 12C176.42 12 176.274 12.0602 176.167 12.1674C176.06 12.2746 176 12.4199 176 12.5714C176 12.723 176.06 12.8683 176.167 12.9755L179.192 16L176.167 19.0246C176.06 19.1318 176 19.2771 176 19.4287C176 19.5802 176.06 19.7255 176.167 19.8327C176.274 19.9398 176.42 20 176.571 20C176.723 20 176.868 19.9398 176.975 19.8327L180 16.8081L183.025 19.8327C183.132 19.9398 183.277 20 183.429 20C183.58 20 183.726 19.9398 183.833 19.8327C183.94 19.7255 184 19.5802 184 19.4287C184 19.2771 183.94 19.1318 183.833 19.0246L180.808 16L183.833 12.9755C183.94 12.8683 184 12.723 184 12.5714C184 12.4199 183.94 12.2746 183.833 12.1674C183.726 12.0603 183.58 12.0001 183.429 12.0001C183.277 12.0001 183.132 12.0603 183.025 12.1674L180 15.192L176.975 12.1674C176.868 12.0602 176.723 12 176.571 12Z"
     fill="#2D2D2D"
     id="path12" />
  <path
     d="M67 12C67 5.37258 72.3726 0 79 0H185C191.627 0 197 5.37258 197 12V27H67V12Z"
     fill="#2D2D2D"
     fill-opacity="0.25"
     id="path14" />
  <path
     style="color:#000000;fill:#2d2d2d;stroke-linecap:round;stroke-linejoin:round;-inkscape-stroke:none"
     d="m 130.94727,35.041016 -14.5,11.5 a 2.5,2.5 0 0 0 -0.40625,3.511718 2.5,2.5 0 0 0 3.51171,0.40625 l 12.89063,-10.222656 11.93555,10.166016 a 2.5,2.5 0 0 0 3.52343,-0.28125 2.5,2.5 0 0 0 -0.28125,-3.523438 l -13.5,-11.5 a 2.50025,2.50025 0 0 0 -3.17382,-0.05664 z"
     id="path16" />
  <path
     style="color:#000000;fill:#2d2d2d;stroke-linecap:round;stroke-linejoin:round;-inkscape-stroke:none"
     d="m 130.94727,48.541016 -14.5,11.5 a 2.5,2.5 0 0 0 -0.40625,3.511718 2.5,2.5 0 0 0 3.51171,0.40625 l 12.89063,-10.222656 11.93555,10.166016 a 2.5,2.5 0 0 0 3.52343,-0.28125 2.5,2.5 0 0 0 -0.28125,-3.523438 l -13.5,-11.5 a 2.50025,2.50025 0 0 0 -3.17382,-0.05664 z"
     id="path18" />
</svg>
