<svg width="128" height="128" viewBox="0 0 128 128" fill="none" xmlns="http://www.w3.org/2000/svg">
<g clip-path="url(#clip0_723_23)">
<g filter="url(#filter0_ii_723_23)">
<rect width="128" height="128" rx="24" fill="url(#paint0_linear_723_23)"/>
</g>
<g style="mix-blend-mode:soft-light" filter="url(#filter1_d_723_23)">
<path fill-rule="evenodd" clip-rule="evenodd" d="M44 32C37.3726 32 32 37.3726 32 44V84C32 90.6274 37.3726 96 44 96H84C90.6274 96 96 90.6274 96 84V44C96 37.3726 90.6274 32 84 32H44ZM64 72C68.4183 72 72 68.4183 72 64C72 59.5817 68.4183 56 64 56C59.5817 56 56 59.5817 56 64C56 68.4183 59.5817 72 64 72Z" fill="#FAFAFA"/>
</g>
<g filter="url(#filter2_d_723_23)">
<path fill-rule="evenodd" clip-rule="evenodd" d="M27.519 55.7647C22.8327 60.451 22.8327 68.049 27.519 72.7353L55.7645 100.981C60.4508 105.667 68.0487 105.667 72.735 100.981L100.981 72.7353C105.667 68.049 105.667 60.451 100.981 55.7647L72.735 27.519C68.0487 22.8327 60.4508 22.8327 55.7645 27.519L27.519 55.7647ZM63.9952 72.2432C68.4097 72.2432 71.9884 68.6645 71.9884 64.25C71.9884 59.8355 68.4097 56.2569 63.9952 56.2569C59.5807 56.2569 56.0021 59.8355 56.0021 64.25C56.0021 68.6645 59.5807 72.2432 63.9952 72.2432Z" fill="#FAFAFA"/>
</g>
</g>
<defs>
<filter id="filter0_ii_723_23" x="0" y="0" width="128" height="129" filterUnits="userSpaceOnUse" color-interpolation-filters="sRGB">
<feFlood flood-opacity="0" result="BackgroundImageFix"/>
<feBlend mode="normal" in="SourceGraphic" in2="BackgroundImageFix" result="shape"/>
<feColorMatrix in="SourceAlpha" type="matrix" values="0 0 0 0 0 0 0 0 0 0 0 0 0 0 0 0 0 0 127 0" result="hardAlpha"/>
<feOffset dy="-4"/>
<feComposite in2="hardAlpha" operator="arithmetic" k2="-1" k3="1"/>
<feColorMatrix type="matrix" values="0 0 0 0 0 0 0 0 0 0 0 0 0 0 0 0 0 0 0.25 0"/>
<feBlend mode="normal" in2="shape" result="effect1_innerShadow_723_23"/>
<feColorMatrix in="SourceAlpha" type="matrix" values="0 0 0 0 0 0 0 0 0 0 0 0 0 0 0 0 0 0 127 0" result="hardAlpha"/>
<feMorphology radius="1" operator="erode" in="SourceAlpha" result="effect2_innerShadow_723_23"/>
<feOffset dy="2"/>
<feComposite in2="hardAlpha" operator="arithmetic" k2="-1" k3="1"/>
<feColorMatrix type="matrix" values="0 0 0 0 1 0 0 0 0 1 0 0 0 0 1 0 0 0 0.25 0"/>
<feBlend mode="normal" in2="effect1_innerShadow_723_23" result="effect2_innerShadow_723_23"/>
</filter>
<filter id="filter1_d_723_23" x="31" y="31" width="70" height="70" filterUnits="userSpaceOnUse" color-interpolation-filters="sRGB">
<feFlood flood-opacity="0" result="BackgroundImageFix"/>
<feColorMatrix in="SourceAlpha" type="matrix" values="0 0 0 0 0 0 0 0 0 0 0 0 0 0 0 0 0 0 127 0" result="hardAlpha"/>
<feOffset dx="2" dy="2"/>
<feGaussianBlur stdDeviation="1.5"/>
<feComposite in2="hardAlpha" operator="out"/>
<feColorMatrix type="matrix" values="0 0 0 0 0 0 0 0 0 0 0 0 0 0 0 0 0 0 0.14 0"/>
<feBlend mode="normal" in2="BackgroundImageFix" result="effect1_dropShadow_723_23"/>
<feBlend mode="normal" in="SourceGraphic" in2="effect1_dropShadow_723_23" result="shape"/>
</filter>
<filter id="filter2_d_723_23" x="23.0043" y="23.0043" width="86.491" height="86.4915" filterUnits="userSpaceOnUse" color-interpolation-filters="sRGB">
<feFlood flood-opacity="0" result="BackgroundImageFix"/>
<feColorMatrix in="SourceAlpha" type="matrix" values="0 0 0 0 0 0 0 0 0 0 0 0 0 0 0 0 0 0 127 0" result="hardAlpha"/>
<feOffset dx="2" dy="2"/>
<feGaussianBlur stdDeviation="1.5"/>
<feComposite in2="hardAlpha" operator="out"/>
<feColorMatrix type="matrix" values="0 0 0 0 0 0 0 0 0 0 0 0 0 0 0 0 0 0 0.14 0"/>
<feBlend mode="normal" in2="BackgroundImageFix" result="effect1_dropShadow_723_23"/>
<feBlend mode="normal" in="SourceGraphic" in2="effect1_dropShadow_723_23" result="shape"/>
</filter>
<linearGradient id="paint0_linear_723_23" x1="31" y1="5.96512e-07" x2="106" y2="128" gradientUnits="userSpaceOnUse">
<stop stop-color="#828292"/>
<stop offset="1" stop-color="#535353"/>
</linearGradient>
<clipPath id="clip0_723_23">
<rect width="128" height="128" rx="24" fill="white"/>
</clipPath>
</defs>
</svg>
