<?xml version="1.0" encoding="UTF-8"?>
<svg xmlns="http://www.w3.org/2000/svg" width="128" height="128" viewBox="0 0 128 128">
  <defs>
    <linearGradient id="gradient-bg" x1="-1.42109e-14" y1="0" x2="128" y2="128" gradientUnits="userSpaceOnUse">
      <stop offset="0%" style="stop-color:#dedee3;stop-opacity:1.0" />
      <stop offset="100%" style="stop-color:#bebec7;stop-opacity:1.0" />
    </linearGradient>
    <linearGradient id="gradient-2" x1="20" y1="19.5" x2="108" y2="107.5" gradientUnits="userSpaceOnUse">
      <stop offset="0%" style="stop-color:#5f5f63;stop-opacity:1.0" />
      <stop offset="100%" style="stop-color:#8e8e95;stop-opacity:1.0" />
    </linearGradient>
    <linearGradient id="gradient-3" x1="64" y1="29.5589" x2="64" y2="97.4411" gradientUnits="userSpaceOnUse">
      <stop offset="0%" style="stop-color:#bebec7;stop-opacity:1.0" />
      <stop offset="100%" style="stop-color:#bebec7;stop-opacity:1.0" />
    </linearGradient>
    <linearGradient id="gradient-4" x1="40" y1="39.5" x2="88" y2="87.5" gradientUnits="userSpaceOnUse">
      <stop offset="0%" style="stop-color:#eeeef1;stop-opacity:1.0" />
      <stop offset="100%" style="stop-color:#dedee3;stop-opacity:1.0" />
    </linearGradient>
    <linearGradient id="gradient-5" x1="64" y1="55.0147" x2="64" y2="71.9853" gradientUnits="userSpaceOnUse">
      <stop offset="0%" style="stop-color:#5f5f63;stop-opacity:1.0" />
      <stop offset="100%" style="stop-color:#888888;stop-opacity:1.0" />
    </linearGradient>
  </defs>
  <rect id="background" x="9.5" y="9.5" width="109" height="109" rx="24" ry="24" fill="url(#gradient-bg)" />
  <g id="content">
    <g id="group-0" style="mix-blend-mode:normal;">
      <ellipse id="element-0-0" cx="64" cy="63.5" rx="44" ry="44" fill="url(#gradient-2)" fill-opacity="1.000" stroke="#ffffff" stroke-opacity="0.320" stroke-width="0.5"/>
    </g>
    <g id="group-1" style="mix-blend-mode:normal;">
      <rect id="element-1-0" x="40" y="39.5" width="48" height="48" rx="6" ry="6" fill="url(#gradient-3)" fill-opacity="1.000" stroke="#000000" stroke-opacity="0.160" stroke-width="1"/>
      <rect id="element-1-1" x="40" y="39.5" width="48" height="48" rx="6" ry="6" fill="url(#gradient-4)" fill-opacity="1.000" stroke="#000000" stroke-opacity="0.160" stroke-width="1" transform="rotate(45 64 63.5)"/>
    </g>
    <g id="group-2" style="mix-blend-mode:normal;">
      <ellipse id="element-2-0" cx="64" cy="63.5" rx="6" ry="6" fill="url(#gradient-5)" fill-opacity="1.000" stroke="#000000" stroke-opacity="0.320" stroke-width="1"/>
    </g>
  </g>
    <g id="overlay-effects" transform="translate(9.5,9.5)">
        <svg xmlns:inkscape="http://www.inkscape.org/namespaces/inkscape" xmlns:sodipodi="http://sodipodi.sourceforge.net/DTD/sodipodi-0.dtd" xmlns="http://www.w3.org/2000/svg" xmlns:svg="http://www.w3.org/2000/svg" width="109" height="109" viewBox="0 0 109 109" fill="none" version="1.1" id="svg2" sodipodi:docname="effects.svg" inkscape:version="1.4.2 (ebf0e940d0, 2025-05-08)"><defs id="defs2"/><sodipodi:namedview id="namedview2" pagecolor="#ffffff" bordercolor="#111111" borderopacity="1" inkscape:showpageshadow="0" inkscape:pageopacity="0" inkscape:pagecheckerboard="1" inkscape:deskcolor="#d1d1d1" inkscape:zoom="4.0000001" inkscape:cx="32.124999" inkscape:cy="51.624999" inkscape:window-width="2560" inkscape:window-height="1298" inkscape:window-x="0" inkscape:window-y="0" inkscape:window-maximized="1" inkscape:current-layer="svg2"/><path id="rect1" style="fill:#ffffff;stroke-linecap:square;fill-opacity:0.39659169" d="M 24 0 C 10.704 0 1.4854784e-16 10.704 0 24 L 0 28 C 1.4854784e-16 14.704 10.704 4 24 4 L 85 4 C 98.296 4 109 14.704 109 28 L 109 24 C 109 10.704 98.296 1.4854784e-16 85 0 L 24 0 z "/><path id="rect1-5" style="fill:#000000;stroke-linecap:square;fill-opacity:0.19670402" d="M 24,109 C 10.704,109 0,98.296 0,85 v -4 c 0,13.296 10.704,24 24,24 h 61 c 13.296,0 24,-10.704 24,-24 v 4 c 0,13.296 -10.704,24 -24,24 z"/></svg>
    </g>
</svg>
